<?xml version="1.0" standalone="no"?>
<!DOCTYPE svg PUBLIC "-//W3C//DTD SVG 20010904//EN"
 "http://www.w3.org/TR/2001/REC-SVG-20010904/DTD/svg10.dtd">
<svg version="1.0" xmlns="http://www.w3.org/2000/svg"
 width="903.000000pt" height="924.000000pt" viewBox="0 0 903.000000 924.000000"
 preserveAspectRatio="xMidYMid meet">

<g transform="translate(0.000000,924.000000) scale(0.100000,-0.100000)"
fill="#000000" stroke="none">
<path d="M2810 9231 c0 -5 9 -7 20 -4 11 3 20 7 20 9 0 2 -9 4 -20 4 -11 0
-20 -4 -20 -9z"/>
<path d="M3431 9188 c0 -29 3 -47 6 -40 4 10 8 9 18 -5 12 -15 17 -16 35 -5
19 11 20 11 15 -11 -5 -19 -2 -25 16 -30 20 -5 21 -8 8 -23 -13 -16 -12 -17 9
-12 12 4 22 2 22 -3 0 -5 -13 -12 -30 -15 -16 -4 -30 -10 -30 -14 0 -4 -16 -4
-35 0 l-34 8 1 -53 c2 -39 5 -52 15 -48 7 3 13 1 13 -5 0 -5 11 -13 24 -16 14
-3 27 -14 30 -24 3 -9 3 1 1 23 -2 22 -1 32 1 23 4 -13 15 -18 37 -17 28 0 29
2 12 10 -17 8 -16 9 7 6 16 -3 25 0 21 5 -3 6 -18 7 -34 4 -29 -5 -33 -1 -30
34 1 9 -8 4 -24 -13 -21 -23 -28 -26 -45 -17 -11 6 -20 15 -20 21 0 6 7 6 20
-1 15 -8 21 -6 29 9 6 10 7 22 3 26 -4 5 -1 5 6 1 8 -5 21 0 33 13 36 39 88
22 90 -28 1 -17 3 -20 6 -8 2 9 9 17 14 17 12 0 12 -33 -1 -46 -7 -7 -4 -17 8
-32 23 -26 32 -28 32 -7 0 10 10 15 30 15 17 0 30 5 30 11 0 7 10 9 24 7 17
-4 23 -1 19 9 -7 18 -2 17 62 -13 32 -16 61 -37 69 -52 l13 -26 8 23 c4 12 4
25 1 28 -3 4 -6 -2 -6 -13 0 -16 -2 -15 -13 5 -7 14 -29 30 -51 38 -37 12 -88
53 -67 53 5 0 13 9 16 20 4 14 15 20 36 20 20 0 29 5 29 16 0 11 -6 15 -20 11
-11 -3 -18 -1 -14 4 3 5 -2 9 -10 9 -9 0 -25 9 -36 20 -11 11 -24 20 -29 20
-5 0 -11 9 -14 20 -3 12 -14 20 -26 20 -12 0 -21 6 -21 15 0 9 -7 18 -15 21
-8 3 -17 15 -21 26 -5 16 -8 18 -15 7 -6 -10 -9 -11 -9 -1 0 6 -10 12 -22 12
-20 0 -23 -5 -24 -46 -1 -26 -7 -50 -14 -54 -6 -4 -11 -10 -11 -14 4 -28 -1
-46 -13 -46 -8 0 -12 9 -10 26 2 21 -1 25 -17 21 -10 -3 -19 -1 -19 4 0 5 9 9
20 9 11 0 20 3 20 6 0 3 -9 17 -20 31 -11 14 -20 34 -20 44 0 16 -8 19 -45 19
l-45 0 1 -52z m49 -38 c0 -5 -2 -10 -4 -10 -3 0 -8 5 -11 10 -3 6 -1 10 4 10
6 0 11 -4 11 -10z m272 -35 c8 -41 -38 -78 -62 -50 -20 24 -8 68 20 76 32 8
37 5 42 -26z m43 -84 c3 -5 1 -12 -5 -16 -5 -3 -10 1 -10 9 0 18 6 21 15 7z
m-325 -31 c0 -5 -5 -10 -11 -10 -5 0 -7 5 -4 10 3 6 8 10 11 10 2 0 4 -4 4
-10z m290 0 c0 -5 -5 -10 -11 -10 -5 0 -7 5 -4 10 3 6 8 10 11 10 2 0 4 -4 4
-10z"/>
<path d="M3765 9229 c-11 -17 1 -21 15 -4 8 9 8 15 2 15 -6 0 -14 -5 -17 -11z"/>
<path d="M4873 9215 c26 -23 73 -43 81 -34 2 2 6 15 8 29 3 24 1 25 -57 28
l-60 3 28 -26z"/>
<path d="M5025 9230 c-11 -5 -14 -9 -7 -9 6 -1 12 -10 12 -21 0 -18 3 -18 28
-8 15 6 36 20 47 30 19 18 19 18 -20 17 -22 0 -49 -4 -60 -9z"/>
<path d="M6476 9203 c9 -21 20 -69 25 -107 12 -91 25 -104 34 -33 8 66 -2 147
-17 126 -6 -9 -7 -3 -3 21 5 26 4 31 -4 20 -7 -10 -11 -11 -11 -2 0 6 -9 12
-20 12 -20 0 -20 -1 -4 -37z m44 -54 c0 -6 -4 -7 -10 -4 -5 3 -10 11 -10 16 0
6 5 7 10 4 6 -3 10 -11 10 -16z m7 -61 c-3 -7 -5 -2 -5 12 0 14 2 19 5 13 2
-7 2 -19 0 -25z"/>
<path d="M5221 9204 c0 -11 3 -14 6 -6 3 7 2 16 -1 19 -3 4 -6 -2 -5 -13z"/>
<path d="M3790 9200 c0 -18 19 -40 35 -40 7 0 6 3 -1 8 -6 4 -16 16 -22 27 -8
15 -11 16 -12 5z"/>
<path d="M5335 9189 c-4 -6 -4 -13 -1 -16 3 -4 6 -1 6 6 0 7 5 9 10 6 6 -3 10
-1 10 4 0 14 -17 14 -25 0z"/>
<path d="M3760 9181 c0 -6 4 -13 10 -16 6 -3 7 1 4 9 -7 18 -14 21 -14 7z"/>
<path d="M4332 9178 c-18 -18 -15 -45 7 -51 33 -8 42 15 18 46 -10 14 -15 15
-25 5z"/>
<path d="M2804 9156 c-3 -8 -4 -23 -2 -33 3 -11 6 -6 9 15 6 34 2 42 -7 18z"/>
<path d="M3918 9143 c5 -21 7 -23 10 -9 2 10 0 22 -6 28 -6 6 -7 0 -4 -19z"/>
<path d="M5130 9128 c-19 -5 -51 -14 -70 -19 -33 -9 -120 -76 -120 -93 0 -4
-13 -26 -29 -50 -16 -23 -31 -55 -33 -71 -2 -17 -12 -34 -23 -40 -16 -8 -20
-21 -22 -62 l-2 -53 57 0 c74 0 83 -7 75 -53 -4 -28 -13 -40 -36 -52 -21 -10
-34 -12 -42 -5 -14 12 -25 -7 -25 -40 0 -11 -6 -23 -12 -27 -7 -4 -18 -18 -25
-29 -11 -20 -10 -21 9 -16 11 3 24 -1 29 -9 12 -19 11 -72 0 -64 -19 11 -20
-13 -5 -66 9 -30 22 -63 30 -74 8 -11 14 -30 14 -42 0 -13 3 -23 8 -23 4 0 16
-16 27 -36 17 -33 20 -34 27 -15 10 27 19 26 47 -3 25 -27 21 -43 -13 -56 -19
-7 -18 -9 16 -25 27 -13 37 -24 35 -39 -3 -33 33 -26 54 9 10 17 18 39 18 50
1 14 11 24 33 30 25 8 34 18 41 45 10 40 21 50 59 50 23 0 29 6 38 40 10 38
13 40 49 40 30 0 42 6 54 24 21 32 14 36 -36 19 -23 -9 -70 -18 -104 -20 -62
-6 -63 -5 -102 33 -48 48 -72 120 -77 224 -6 150 77 250 183 220 42 -11 64
-36 82 -91 13 -41 30 -49 103 -49 60 0 96 -16 114 -51 35 -69 0 -163 -80 -216
-26 -18 -44 -33 -40 -34 5 0 20 -2 35 -4 19 -2 30 4 45 26 12 18 25 27 34 23
47 -18 72 -16 95 6 l24 23 32 -21 c33 -20 33 -20 71 -1 21 11 42 17 47 15 20
-13 36 50 36 144 0 95 -1 97 -35 142 -22 29 -53 54 -85 69 -44 20 -63 23 -161
21 -104 -2 -112 -1 -139 22 -21 18 -29 34 -29 59 -1 19 -5 32 -10 29 -5 -3 -7
2 -3 11 3 9 1 17 -4 19 -6 2 -11 11 -13 20 -1 10 -13 29 -26 43 -13 14 -19 25
-14 25 5 0 -6 9 -24 20 -18 11 -30 24 -27 29 3 5 0 13 -6 17 -8 4 -9 3 -5 -5
6 -8 -4 -10 -36 -5 -24 4 -50 10 -58 14 -8 4 -31 3 -50 -2z m78 -51 c-5 -7 24
-37 36 -37 6 0 4 4 -4 10 -23 14 -4 23 22 9 25 -13 58 -44 58 -55 0 -3 -7 -1
-15 6 -14 12 -19 7 -16 -13 1 -5 -3 -6 -9 -2 -7 5 -8 11 -1 19 8 9 2 11 -24 8
-22 -3 -35 0 -35 7 0 6 -7 11 -15 11 -15 0 -21 31 -8 43 7 7 17 2 11 -6z m477
-297 c-3 -5 -12 -10 -18 -10 -7 0 -6 4 3 10 19 12 23 12 15 0z m76 -32 c1 -7
0 -20 -1 -27 -1 -12 1 -12 13 -3 11 10 17 9 27 -3 7 -8 9 -15 4 -15 -4 0 -3
-5 4 -12 7 -7 12 -30 11 -52 0 -32 -2 -37 -9 -21 -7 16 -9 14 -9 -15 -1 -19
-5 -42 -10 -49 -6 -10 -8 0 -4 27 5 34 3 42 -11 42 -9 0 -16 8 -16 18 0 19
-48 42 -88 42 -16 0 -22 6 -22 22 0 21 0 21 15 2 14 -18 14 -18 15 6 0 20 7
28 33 37 45 14 47 15 48 1z"/>
<path d="M2798 9053 c-1 -31 -1 -62 1 -79 0 -6 17 -31 36 -55 41 -51 42 -62
14 -92 -29 -31 -51 -76 -45 -93 3 -8 0 -14 -6 -14 -7 0 -9 -16 -5 -46 3 -32 2
-42 -5 -33 -7 10 -7 5 -3 -16 4 -16 9 -50 11 -75 3 -24 9 -47 13 -50 5 -3 11
-15 15 -27 4 -13 14 -23 22 -23 8 0 12 -4 9 -10 -3 -6 1 -7 9 -4 22 9 20 40
-5 65 -19 19 -22 34 -23 132 -2 61 1 102 5 91 7 -18 8 -17 8 3 1 13 24 47 54
78 l52 56 -58 61 c-32 35 -55 68 -52 75 2 8 0 11 -5 8 -6 -4 -10 5 -8 22 2 31
-7 53 -23 53 -5 0 -10 -12 -11 -27z m19 -15 c-3 -7 -5 -2 -5 12 0 14 2 19 5
13 2 -7 2 -19 0 -25z"/>
<path d="M5881 9064 c0 -11 3 -14 6 -6 3 7 2 16 -1 19 -3 4 -6 -2 -5 -13z"/>
<path d="M4516 9061 c-12 -18 14 -42 36 -35 16 5 19 2 16 -18 -2 -12 4 -29 12
-35 13 -12 13 -15 -3 -27 -21 -16 -76 -11 -119 11 -31 15 -32 15 -28 -62 4
-107 132 -215 253 -215 44 0 59 5 85 28 52 46 65 108 38 173 -42 100 -136 176
-229 186 -36 4 -57 2 -61 -6z m135 -32 c23 -12 16 -29 -12 -29 -12 0 -19 7
-19 20 0 23 4 24 31 9z m88 -68 c43 -51 56 -78 64 -128 8 -46 -5 -93 -25 -93
-9 0 -13 17 -14 53 0 53 -11 76 -67 149 -28 37 -29 58 -3 58 7 0 27 -18 45
-39z"/>
<path d="M5902 9040 c0 -14 2 -19 5 -12 2 6 2 18 0 25 -3 6 -5 1 -5 -13z"/>
<path d="M6491 9033 c0 -13 -1 -26 0 -29 0 -4 -3 -10 -8 -13 -4 -3 -16 -22
-27 -41 -10 -19 -31 -46 -47 -60 -30 -26 -29 -32 9 -65 20 -16 25 -17 34 -5 8
12 9 11 4 -3 -3 -10 -1 -28 6 -40 7 -12 13 -28 14 -35 4 -24 14 -26 14 -4 0
11 5 24 10 27 15 9 12 25 -4 19 -8 -3 -17 -1 -21 5 -3 6 1 11 10 11 13 0 13 4
-4 28 -24 33 -36 88 -22 97 7 4 11 -3 11 -17 0 -18 2 -20 10 -8 5 8 10 26 11
40 0 22 1 23 8 6 7 -18 8 -18 14 -3 3 9 3 24 0 34 -4 11 -3 14 5 9 7 -4 12 -3
12 2 0 6 -6 12 -14 15 -8 3 -16 16 -19 29 l-4 23 -2 -22z m-46 -153 c-3 -5
-11 -10 -16 -10 -6 0 -7 5 -4 10 3 6 11 10 16 10 6 0 7 -4 4 -10z"/>
<path d="M4006 9002 c-2 -4 4 -8 14 -8 10 0 16 4 14 8 -3 4 -9 8 -14 8 -5 0
-11 -4 -14 -8z"/>
<path d="M5395 9001 c-3 -5 -2 -12 3 -15 5 -3 9 1 9 9 0 17 -3 19 -12 6z"/>
<path d="M4786 8977 c3 -10 9 -15 12 -12 3 3 0 11 -7 18 -10 9 -11 8 -5 -6z"/>
<path d="M3812 8923 c9 -2 15 -11 12 -19 -14 -47 -14 -47 -28 -35 -10 8 -16 9
-21 1 -3 -6 -10 -8 -13 -6 -4 2 -19 -5 -32 -16 l-25 -20 28 5 c23 4 27 1 27
-20 0 -24 0 -24 24 -6 16 12 20 20 12 26 -6 4 16 5 49 2 36 -3 55 -2 47 3 -8
5 -12 22 -11 38 5 42 -7 54 -49 53 -20 -1 -29 -3 -20 -6z"/>
<path d="M3470 8890 c0 -5 5 -10 10 -10 6 0 10 -6 10 -12 1 -22 45 -48 61 -36
11 8 10 9 -4 4 -13 -4 -20 0 -24 14 -3 11 -9 20 -14 20 -5 0 -9 7 -9 15 0 8
-7 15 -15 15 -8 0 -15 -4 -15 -10z"/>
<path d="M3996 8864 c-16 -42 10 -124 35 -109 5 4 9 2 9 -3 0 -18 58 -34 92
-27 32 7 32 8 9 16 -13 5 -38 10 -56 12 -18 1 -31 5 -28 10 2 4 -2 7 -10 7
-29 0 -50 37 -43 75 7 36 3 47 -8 19z"/>
<path d="M3460 8856 c0 -8 -5 -18 -12 -22 -7 -4 -8 -3 -4 4 4 7 2 12 -3 12 -6
0 -11 -20 -11 -45 0 -39 3 -45 21 -45 12 0 19 5 16 13 -2 6 3 21 12 31 11 13
12 20 5 23 -7 2 -10 13 -7 23 3 11 0 20 -6 20 -6 0 -11 -6 -11 -14z"/>
<path d="M3930 8836 c0 -22 26 -43 38 -31 3 2 -3 8 -12 11 -10 4 -13 10 -8 13
6 4 4 11 -4 19 -12 11 -14 9 -14 -12z"/>
<path d="M3613 8805 c7 -13 14 -20 15 -14 5 14 -6 39 -17 39 -5 0 -4 -11 2
-25z"/>
<path d="M5901 8774 c0 -11 3 -14 6 -6 3 7 2 16 -1 19 -3 4 -6 -2 -5 -13z"/>
<path d="M4342 8751 c-27 -23 -31 -32 -24 -52 9 -23 9 -23 45 15 19 22 33 45
30 53 -7 18 -13 16 -51 -16z"/>
<path d="M4440 8755 c-12 -14 -10 -20 12 -40 14 -13 28 -21 32 -18 3 3 8 -2
12 -11 3 -9 11 -16 16 -16 6 0 8 6 5 14 -3 8 -2 17 4 20 5 2 4 3 -3 2 -7 -1
-20 11 -29 28 -19 36 -32 42 -49 21z"/>
<path d="M3509 8750 c8 -4 21 -6 29 -2 9 3 13 1 9 -4 -3 -6 8 -23 26 -40 l32
-29 -18 27 c-11 18 -13 26 -4 22 8 -3 13 3 13 15 0 15 -3 17 -13 9 -8 -7 -18
-7 -25 -1 -7 5 -24 10 -38 11 -18 1 -21 -1 -11 -8z"/>
<path d="M3690 8744 c0 -8 5 -12 10 -9 6 4 8 11 5 16 -9 14 -15 11 -15 -7z"/>
<path d="M3825 8750 c-3 -5 -1 -10 4 -10 6 0 11 5 11 10 0 6 -2 10 -4 10 -3 0
-8 -4 -11 -10z"/>
<path d="M6505 8751 c-3 -6 -6 -30 -5 -53 0 -24 1 -59 1 -78 1 -33 1 -33 10
-11 6 16 6 35 0 53 -6 17 -6 39 -1 60 10 32 7 48 -5 29z"/>
<path d="M3848 8722 c-21 -4 -22 -12 -5 -36 12 -16 14 -16 30 2 14 15 15 21 5
29 -7 5 -21 8 -30 5z"/>
<path d="M4033 8687 c4 -11 -1 -21 -14 -30 -11 -6 -30 -29 -41 -50 -18 -36
-21 -38 -37 -23 -24 22 -41 20 -41 -4 0 -16 7 -20 30 -20 17 0 30 -4 30 -10 0
-5 8 -10 18 -10 16 0 42 45 57 98 4 12 10 22 15 22 5 0 7 -6 4 -14 -3 -8 -1
-17 5 -21 6 -3 11 0 11 8 0 12 8 12 47 2 32 -8 59 -9 83 -3 61 16 62 16 51 35
-8 15 -24 18 -98 18 -48 0 -97 5 -107 9 -16 8 -18 6 -13 -7z"/>
<path d="M6527 8669 c4 -13 8 -18 11 -10 2 7 -1 18 -6 23 -8 8 -9 4 -5 -13z"/>
<path d="M3611 8664 c0 -11 3 -14 6 -6 3 7 2 16 -1 19 -3 4 -6 -2 -5 -13z"/>
<path d="M3660 8671 c0 -6 4 -13 10 -16 6 -3 7 1 4 9 -7 18 -14 21 -14 7z"/>
<path d="M4581 8654 l-25 -13 30 -6 c16 -3 37 -8 47 -10 10 -2 32 1 49 6 26 7
34 5 50 -13 22 -25 23 -36 4 -57 -17 -19 -10 -71 10 -71 7 0 15 4 19 10 3 5
12 7 20 3 20 -7 19 17 -2 32 -11 8 -18 32 -21 74 -4 58 -6 61 -26 54 -26 -9
-72 -10 -106 -2 -14 4 -36 1 -49 -7z"/>
<path d="M6532 8620 c0 -14 2 -19 5 -12 2 6 2 18 0 25 -3 6 -5 1 -5 -13z"/>
<path d="M3662 8610 c-7 -11 -12 -25 -12 -32 0 -7 7 0 15 16 18 33 15 45 -3
16z"/>
<path d="M4070 8592 c0 -5 7 -9 15 -9 8 0 12 4 9 9 -3 4 -9 8 -15 8 -5 0 -9
-4 -9 -8z"/>
<path d="M6522 8568 c-7 -7 -12 -9 -12 -4 0 16 -29 -23 -44 -58 -16 -39 -17
-49 -16 -128 1 -45 39 -155 40 -113 0 14 3 16 11 8 8 -8 9 -21 3 -40 -11 -35
-6 -113 7 -113 6 0 7 5 4 10 -3 6 -1 10 4 10 18 0 12 -22 -6 -27 -19 -4 -69
-107 -66 -133 1 -8 -3 -17 -8 -21 -6 -3 -2 -12 7 -20 16 -12 17 -12 11 4 -4
11 -2 17 8 17 15 0 19 11 16 39 -2 7 2 10 8 7 14 -9 25 14 23 46 -1 15 2 28 7
28 11 0 24 49 26 97 1 18 -3 29 -8 26 -5 -3 -6 8 -2 27 5 23 4 30 -4 26 -6 -4
-11 -1 -12 6 -3 45 -8 62 -20 72 -8 6 -22 23 -31 37 -16 25 -16 29 3 65 10 21
19 34 19 29 0 -6 7 -1 15 9 8 11 15 25 15 30 0 6 -6 3 -14 -6 -11 -15 -13 -14
-13 15 0 18 2 26 5 19 3 -9 10 -6 23 9 26 30 27 53 1 27z m-55 -120 c-3 -8 -6
-5 -6 6 -1 11 2 17 5 13 3 -3 4 -12 1 -19z m50 -240 c-3 -7 -5 -2 -5 12 0 14
2 19 5 13 2 -7 2 -19 0 -25z m-20 -160 c-3 -8 -6 -5 -6 6 -1 11 2 17 5 13 3
-3 4 -12 1 -19z m-27 -58 c0 -5 -5 -10 -11 -10 -5 0 -7 5 -4 10 3 6 8 10 11
10 2 0 4 -4 4 -10z"/>
<path d="M3650 8529 c0 -11 5 -29 10 -40 7 -13 7 -19 0 -19 -6 0 -10 -25 -10
-60 0 -51 3 -60 18 -59 10 0 12 3 5 6 -7 2 -13 20 -13 39 0 29 4 34 23 34 12
0 17 3 11 8 -6 4 -17 31 -24 60 -13 55 -20 66 -20 31z"/>
<path d="M3888 8543 c7 -3 16 -2 19 1 4 3 -2 6 -13 5 -11 0 -14 -3 -6 -6z"/>
<path d="M3363 8526 c4 -9 -4 -16 -21 -19 -18 -4 -32 -16 -40 -36 -8 -17 -17
-29 -22 -26 -4 3 -6 -5 -3 -16 6 -20 3 -21 -35 -17 -23 2 -44 -1 -46 -7 -3 -6
-5 -5 -5 2 -1 6 7 20 17 29 16 17 16 17 -3 10 -11 -5 -29 -9 -40 -10 -33 -2
-46 -16 -39 -39 6 -19 5 -20 -10 -8 -14 12 -16 10 -16 -13 0 -83 97 -154 235
-173 41 -5 43 -4 74 41 40 58 64 114 57 133 -3 8 -9 12 -13 10 -5 -3 -9 6 -10
20 0 16 2 21 7 14 5 -9 9 -6 13 10 8 31 -21 89 -50 100 -35 13 -56 11 -50 -5z
m72 -36 c3 -5 -1 -10 -9 -10 -8 0 -18 5 -21 10 -3 6 1 10 9 10 8 0 18 -4 21
-10z m-210 -143 c13 -3 8 -5 -12 -6 -28 -1 -33 3 -33 21 0 19 1 20 13 6 6 -9
21 -18 32 -21z m139 3 c-7 -7 -23 -7 -50 0 l-39 10 43 -5 c28 -4 42 -1 42 7 0
6 3 8 7 5 4 -4 2 -12 -3 -17z m-61 -17 c-7 -2 -21 -2 -30 0 -10 3 -4 5 12 5
17 0 24 -2 18 -5z"/>
<path d="M3750 8520 c-13 -8 -12 -10 3 -10 9 0 17 5 17 10 0 12 -1 12 -20 0z"/>
<path d="M4262 8508 c-7 -7 -12 -24 -12 -40 0 -18 -4 -26 -12 -23 -7 3 -20
-10 -29 -28 -9 -17 -24 -34 -34 -36 -11 -2 -40 -21 -67 -43 -29 -25 -53 -38
-63 -35 -28 11 -19 -71 14 -128 30 -53 57 -82 67 -72 4 3 2 32 -4 64 -8 44 -7
65 3 88 7 17 14 24 14 18 1 -10 7 -10 28 0 21 9 27 9 31 -1 2 -7 8 -10 13 -6
21 13 7 -19 -18 -41 l-28 -25 38 -36 c37 -34 39 -35 58 -18 26 23 32 14 32
-51 0 -49 3 -56 23 -61 28 -7 39 -1 98 54 43 39 57 62 39 62 -5 0 -17 19 -28
41 -10 23 -25 44 -32 46 -7 3 -13 11 -13 19 0 8 -5 14 -12 14 -6 0 -8 3 -5 7
4 3 0 15 -10 25 -15 17 -15 18 13 19 16 1 32 1 37 0 23 -4 -23 42 -66 64 -30
16 -25 27 18 42 33 12 51 13 102 3 35 -7 70 -9 79 -6 14 6 13 9 -7 26 -13 11
-30 24 -37 30 -41 35 -203 55 -230 28z m44 -257 c5 -5 23 -11 39 -13 38 -4 44
-34 15 -71 -28 -35 -40 -34 -40 2 0 28 -13 44 -66 78 -17 11 -16 12 12 12 16
1 34 -3 40 -8z"/>
<path d="M6403 8420 c-13 -5 -23 -12 -23 -16 0 -8 43 -43 53 -44 4 0 3 9 -3
19 -5 11 -7 27 -4 35 7 18 7 18 -23 6z"/>
<path d="M2844 8355 c-5 -11 -3 -20 4 -23 6 -2 8 -10 5 -18 -4 -10 0 -12 11
-8 9 3 17 10 18 15 3 23 2 29 -6 28 -5 0 -12 5 -17 12 -6 10 -10 9 -15 -6z"/>
<path d="M5595 8345 c-251 -56 -452 -262 -501 -513 -19 -98 -19 -95 22 -117
20 -10 50 -38 67 -62 17 -24 31 -43 31 -43 1 0 1 39 1 88 0 232 135 423 355
502 83 30 236 33 320 5 255 -82 407 -320 371 -581 -21 -150 -106 -281 -239
-367 -81 -52 -124 -67 -217 -78 -168 -19 -315 32 -439 150 l-69 66 7 -55 c4
-30 10 -75 13 -100 3 -25 14 -55 25 -67 32 -34 178 -101 257 -118 357 -75 706
149 785 502 66 294 -78 598 -347 731 -137 68 -299 89 -442 57z"/>
<path d="M3925 8339 c-16 -5 -34 -15 -40 -22 -5 -7 -18 -16 -27 -20 -23 -8
-64 -74 -73 -117 l-7 -35 23 21 c40 34 77 54 103 54 39 0 56 25 56 81 0 27 -1
49 -2 48 -2 0 -16 -5 -33 -10z"/>
<path d="M2813 8303 c-7 -15 -13 -30 -13 -35 0 -12 27 2 27 15 0 7 4 20 8 30
12 28 -9 19 -22 -10z"/>
<path d="M3641 8304 c0 -11 3 -14 6 -6 3 7 2 16 -1 19 -3 4 -6 -2 -5 -13z"/>
<path d="M3615 8290 c3 -5 2 -10 -3 -10 -6 0 -15 -13 -20 -29 -9 -24 -7 -32 7
-45 17 -15 19 -14 29 23 12 39 8 71 -10 71 -5 0 -6 -4 -3 -10z"/>
<path d="M2808 8192 c8 -60 7 -116 -3 -136 -6 -15 -5 -17 5 -11 10 6 12 4 7
-9 -4 -11 1 -29 13 -46 26 -37 25 -63 -6 -115 -32 -55 -35 -91 -12 -132 10
-18 13 -33 8 -33 -6 0 -10 5 -10 10 0 6 -7 10 -15 10 -8 0 -15 -6 -15 -14 0
-8 -34 -32 -76 -52 -89 -45 -165 -122 -190 -193 -23 -66 -29 -76 -50 -79 -10
-2 -43 -14 -72 -28 -29 -13 -56 -23 -60 -22 -10 3 -119 -69 -161 -106 -97 -85
-121 -109 -121 -118 0 -5 -15 -31 -32 -56 -18 -26 -34 -49 -35 -51 -1 -2 -8 1
-15 6 -22 18 -131 25 -199 14 -82 -15 -152 -45 -210 -93 -26 -21 -51 -38 -55
-38 -5 0 -20 -16 -33 -35 -13 -19 -28 -35 -33 -35 -5 0 -6 4 -3 10 3 6 -1 7
-10 4 -14 -6 -14 -8 2 -19 17 -13 17 -14 0 -33 -10 -11 -17 -23 -15 -28 1 -5
-6 -32 -16 -61 -19 -57 -24 -125 -13 -190 5 -32 4 -43 -5 -44 -7 -1 -26 -3
-43 -5 -19 -2 -25 0 -16 5 17 11 -2 23 -23 15 -14 -5 -20 -23 -18 -45 1 -4
-12 -12 -27 -19 -16 -6 -40 -24 -53 -38 -13 -15 -40 -41 -59 -57 -19 -17 -40
-41 -46 -55 -7 -14 -22 -40 -32 -59 -11 -19 -25 -47 -30 -62 -7 -21 -17 -29
-33 -29 -40 -1 -78 -43 -83 -92 -1 -10 2 -15 7 -12 4 3 6 9 4 13 -3 4 1 8 9 8
8 0 12 -4 9 -9 -10 -16 6 -8 27 15 l21 22 -6 -40 c-10 -63 -11 -200 -2 -329 7
-96 6 -120 -5 -127 -10 -6 -10 -9 -2 -9 26 0 -11 -419 -38 -436 -5 -3 -9 -12
-9 -21 0 -9 -10 -43 -22 -75 -16 -46 -23 -56 -30 -44 -5 9 -14 16 -20 16 -6 0
-2 -10 9 -22 23 -26 18 -46 -24 -105 -13 -17 -23 -35 -23 -40 0 -14 -110 -123
-125 -123 -21 0 -95 -40 -95 -51 0 -5 7 -12 15 -14 8 -3 22 -7 30 -10 8 -2 12
-11 9 -20 -3 -8 -11 -12 -17 -8 -6 4 -7 1 -2 -7 6 -10 11 -9 21 4 18 25 45 14
95 -39 45 -47 119 -152 119 -168 0 -5 -7 -15 -17 -22 -11 -8 -13 -14 -5 -19 7
-4 12 -2 12 3 0 6 5 11 10 11 6 0 10 -5 10 -11 0 -9 24 -69 51 -124 43 -91 60
-390 45 -775 -2 -58 1 -121 6 -140 46 -155 85 -237 144 -300 23 -25 44 -54 46
-65 2 -11 8 -20 13 -20 6 -1 32 -15 59 -33 28 -18 62 -32 76 -32 42 0 57 -20
63 -83 3 -34 18 -83 36 -121 17 -34 31 -68 31 -74 0 -16 106 -122 122 -122 7
0 31 -12 52 -26 22 -15 55 -31 75 -36 45 -12 231 -25 225 -16 -11 17 52 12 69
-6 18 -21 23 -41 7 -31 -5 3 -18 2 -27 -4 -14 -8 -12 -9 14 -6 28 3 37 -3 70
-43 52 -63 100 -108 151 -138 23 -14 42 -29 42 -34 0 -4 8 -10 18 -14 9 -3 31
-14 48 -24 27 -16 30 -21 21 -38 -19 -32 -19 -56 -1 -52 19 3 26 14 49 80 9
26 28 64 42 85 16 23 21 39 14 41 -63 21 -205 121 -246 173 -16 22 -37 47 -45
58 -9 11 -31 51 -50 91 -30 60 -38 70 -55 65 -212 -67 -282 -64 -392 16 -77
57 -114 138 -121 262 l-5 94 -81 26 c-182 59 -261 153 -302 357 -15 76 -16
103 -5 262 7 97 10 207 7 245 -35 385 -88 567 -215 736 l-51 68 43 53 c46 55
113 186 140 271 58 181 79 353 76 600 -5 312 -3 377 14 438 32 115 92 205 170
254 39 24 142 62 215 78 17 3 32 10 32 13 0 4 -9 50 -21 102 -22 104 -20 154
11 226 30 69 72 114 145 152 41 21 64 26 130 26 51 1 96 -5 125 -16 25 -9 59
-19 76 -23 30 -6 32 -4 59 52 77 159 188 265 342 326 41 16 43 16 53 -3 19
-35 10 -46 -67 -85 -109 -55 -205 -152 -261 -265 -67 -135 -54 -128 -169 -90
-127 42 -204 43 -268 6 -96 -57 -133 -154 -106 -279 5 -23 15 -69 21 -102 7
-33 14 -65 17 -71 2 -6 -17 -17 -44 -24 -211 -55 -267 -83 -327 -164 -66 -88
-89 -212 -74 -391 18 -208 -5 -504 -52 -690 -31 -123 -86 -252 -142 -335 -21
-30 -38 -59 -38 -63 0 -5 11 -23 24 -40 89 -119 157 -306 193 -527 13 -82 17
-174 18 -425 0 -329 4 -368 43 -440 23 -42 71 -93 112 -120 34 -21 148 -62
200 -72 14 -2 28 -7 32 -11 3 -4 8 -61 10 -128 3 -114 5 -123 33 -169 58 -94
167 -125 297 -85 40 13 92 29 115 36 l42 13 42 -82 c61 -120 86 -156 144 -213
54 -52 178 -124 213 -124 36 0 32 16 -6 29 -138 49 -233 140 -317 304 -33 64
-65 117 -71 117 -6 0 -55 -16 -110 -35 -125 -44 -197 -47 -260 -10 -74 43 -88
79 -94 234 l-5 134 -100 29 c-126 35 -157 52 -209 109 -78 87 -80 96 -87 514
-5 328 -8 382 -28 475 -37 178 -90 315 -166 435 l-35 54 35 53 c19 29 35 56
35 61 0 5 9 21 19 36 26 36 94 253 117 371 15 77 19 165 24 460 l6 365 27 57
c31 67 90 128 144 150 37 15 130 43 225 68 54 14 53 6 17 152 -10 42 -19 108
-19 146 0 64 3 73 36 117 42 54 99 85 159 85 22 0 87 -16 145 -35 58 -19 112
-35 121 -35 10 0 36 38 70 105 84 163 144 227 278 292 l65 32 27 -48 c34 -59
113 -131 176 -161 172 -81 396 -26 504 123 l29 40 6 -32 c4 -17 11 -34 16 -37
4 -3 -3 -20 -18 -37 -22 -26 -25 -38 -21 -74 6 -53 50 -123 77 -123 10 0 24
-8 29 -17 7 -13 13 -14 18 -7 6 8 15 8 33 1 14 -5 45 -12 70 -14 25 -3 49 -9
54 -14 6 -5 18 -9 29 -9 10 0 27 -5 38 -11 19 -10 19 -12 5 -28 -15 -16 -12
-17 47 -10 87 10 130 25 157 54 13 14 18 25 12 25 -14 0 18 58 36 65 8 3 10 0
6 -6 -10 -16 30 -3 106 37 139 71 130 64 130 104 0 29 -8 44 -44 79 -24 24
-49 41 -54 37 -6 -3 -14 -21 -18 -39 -3 -17 -21 -53 -38 -79 -30 -47 -46 -59
-46 -37 0 6 -9 1 -21 -12 -16 -19 -19 -20 -15 -6 3 10 6 23 6 28 0 5 6 9 13 9
6 0 17 11 24 25 6 14 7 25 2 25 -6 0 -5 8 1 19 7 13 7 22 0 26 -15 9 -12 55 3
61 20 7 13 74 -13 119 -32 55 -32 145 -1 196 13 22 19 44 15 55 -8 24 -32 83
-45 109 -16 33 -84 102 -105 108 -12 3 -7 5 14 6 17 0 32 -3 32 -9 0 -5 12
-10 26 -10 16 0 23 4 18 12 -4 6 -3 8 4 4 6 -3 9 -14 7 -24 -2 -12 4 -18 17
-19 15 -2 18 2 13 15 -4 9 -10 25 -12 35 -3 10 -21 24 -39 32 -19 8 -34 21
-34 29 0 9 -7 12 -18 9 -19 -4 -60 32 -49 44 4 3 -3 11 -16 17 -15 8 -22 21
-22 41 0 26 4 30 28 30 26 -1 27 1 21 30 -3 16 -10 31 -15 33 -44 17 -109 117
-109 170 0 13 -4 20 -10 17 -6 -4 -19 4 -29 16 l-18 23 -18 -28 c-18 -27 -18
-29 -1 -54 41 -63 60 -119 64 -192 4 -73 0 -90 -43 -192 -6 -16 -3 -17 24 -12
20 4 31 3 31 -5 0 -6 -7 -11 -15 -11 -8 0 -14 -5 -12 -12 1 -6 -12 -14 -29
-18 -32 -7 -114 -84 -114 -107 0 -7 -5 -13 -11 -13 -6 0 -9 -7 -5 -15 3 -8 1
-15 -4 -15 -6 0 -10 5 -10 10 0 6 -8 10 -17 10 -16 0 -16 -1 -1 -16 13 -14 22
-14 52 -4 19 6 65 12 101 13 53 2 69 -2 79 -16 7 -9 18 -17 25 -17 6 0 11 -4
11 -9 0 -5 10 -11 22 -13 15 -2 29 -16 41 -40 9 -21 23 -38 31 -38 20 0 17
-187 -3 -199 -8 -5 -11 -17 -7 -28 7 -21 -62 -170 -88 -192 -8 -7 -12 -19 -9
-27 3 -8 0 -14 -6 -14 -6 0 -16 -11 -22 -24 -10 -20 -97 -71 -107 -62 -9 10
35 73 96 138 l67 71 5 74 c3 41 2 77 -2 80 -5 2 -8 -2 -8 -10 0 -8 -8 -21 -17
-28 -15 -13 -16 -12 -9 11 18 58 15 63 -64 102 -66 33 -71 38 -44 38 21 0 37
7 48 23 15 21 16 21 30 4 20 -26 92 -18 88 9 -9 56 -73 104 -141 104 -18 0
-58 7 -89 16 -53 16 -56 15 -69 -2 -7 -10 -13 -26 -13 -36 0 -10 -5 -18 -10
-18 -17 0 -60 -51 -85 -100 -13 -25 -32 -54 -42 -65 -11 -11 -18 -26 -15 -33
2 -6 -1 -12 -7 -12 -6 0 -11 -8 -11 -17 0 -31 -36 38 -50 95 -22 94 7 207 62
246 22 16 22 16 -9 16 -98 0 -222 88 -272 193 -38 78 -46 138 -31 213 15 70
31 105 75 160 l33 40 -21 14 c-30 20 -55 20 -69 1 -11 -14 -11 -14 2 -6 13 8
13 7 0 -5 -9 -8 -28 -40 -43 -70 -23 -48 -27 -52 -33 -32 -7 23 -20 29 -26 11
-2 -6 -5 13 -6 41 -1 29 -5 57 -9 64 -4 6 -6 18 -5 28 2 9 -1 19 -6 22 -5 3
-7 -11 -4 -32z m65 -442 c15 -40 15 -40 -8 -40 -23 0 -35 26 -27 63 6 28 18
20 35 -23z m-18 -224 c34 -14 46 -31 65 -83 8 -23 8 -25 -2 -12 -7 8 -34 24
-60 34 -25 11 -45 23 -42 26 2 4 -3 10 -12 13 -13 5 -14 9 -4 21 15 18 13 18
55 1z m258 -168 c21 -25 23 -45 2 -28 -8 7 -24 9 -37 5 -23 -7 -23 -7 -3 8 20
16 20 16 -2 10 -14 -3 -23 -1 -23 6 0 6 -3 10 -7 10 -25 -4 -34 4 -13 11 33
10 61 3 83 -22z m250 -145 c-4 -27 -6 -70 -5 -98 l2 -50 -21 33 c-17 26 -20
43 -17 82 5 48 21 80 40 80 5 0 6 -19 1 -47z m125 21 c-25 -13 -33 -25 -29
-46 0 -5 -3 -8 -7 -8 -4 0 -5 -27 -2 -60 6 -66 5 -71 -16 -63 -17 6 -28 64
-20 98 8 33 64 95 85 95 10 -1 6 -6 -11 -16z m94 -64 l28 -50 -26 0 c-23 0
-84 52 -84 73 0 6 34 25 50 26 3 0 17 -22 32 -49z m-172 -189 c0 -14 2 -14 10
-1 6 10 10 11 10 3 0 -7 16 -27 35 -44 44 -40 44 -50 3 -43 -38 7 -78 46 -78
75 0 11 -5 30 -11 42 -12 22 -12 22 10 3 11 -11 21 -26 21 -35z m97 43 c-3 -3
-12 -4 -19 -1 -8 3 -5 6 6 6 11 1 17 -2 13 -5z m369 -130 c-1 -9 -10 -21 -20
-26 -17 -9 -17 -9 -1 16 20 30 24 32 21 10z m-2886 -803 c0 -5 -7 -12 -16 -15
-14 -5 -15 -4 -4 9 14 17 20 19 20 6z m-43 -23 c-3 -8 -6 -5 -6 6 -1 11 2 17
5 13 3 -3 4 -12 1 -19z"/>
<path d="M3972 8149 c-7 -11 -19 -18 -27 -15 -24 9 -50 -61 -50 -135 0 -58 3
-70 30 -102 30 -36 108 -84 113 -69 1 4 58 6 127 4 137 -5 239 14 271 49 10
11 23 19 29 19 19 0 84 64 106 104 10 20 17 36 14 36 -3 0 3 10 15 22 23 25
25 37 8 73 -15 33 -22 32 -36 -9 -7 -18 -26 -48 -44 -66 -26 -28 -32 -30 -40
-17 -5 11 -4 24 4 36 10 17 10 23 -1 33 -12 11 -13 10 -7 -7 4 -11 4 -16 0
-12 -9 9 -44 -22 -44 -38 0 -18 -92 -55 -134 -55 -20 0 -36 -3 -36 -8 0 -10
110 -52 137 -52 31 0 37 -17 12 -31 -15 -8 -44 -9 -88 -5 -92 10 -103 12 -126
20 -115 43 -152 82 -176 189 -15 61 -34 74 -57 36z"/>
<path d="M2793 8114 c-3 -8 -1 -20 6 -27 8 -8 11 -4 11 16 0 30 -7 35 -17 11z"/>
<path d="M4985 8010 c-3 -5 -1 -10 4 -10 6 0 11 5 11 10 0 6 -2 10 -4 10 -3 0
-8 -4 -11 -10z"/>
<path d="M3097 7992 c-25 -28 -37 -68 -28 -99 23 -80 73 -143 142 -179 26 -13
32 -13 59 1 47 24 99 75 121 116 28 55 26 129 -4 157 -29 27 -71 28 -104 2
-14 -11 -32 -20 -40 -20 -8 0 -26 9 -40 20 -32 25 -85 26 -106 2z"/>
<path d="M4924 7972 c-16 -13 -21 -27 -19 -54 1 -21 -2 -38 -7 -38 -4 0 -8 -6
-8 -12 0 -17 104 -73 119 -64 14 9 14 41 1 67 -9 16 -6 25 20 50 16 17 30 32
30 35 0 11 -34 2 -44 -11 -15 -20 -56 -8 -56 16 0 26 -13 30 -36 11z"/>
<path d="M5685 7903 c-23 -6 -74 -40 -93 -63 -80 -96 -66 -237 31 -314 29 -24
50 -31 97 -34 85 -6 121 3 170 45 125 107 97 295 -52 357 -36 15 -110 19 -153
9z m159 -28 c43 -21 54 -39 36 -60 -11 -13 -14 -13 -26 2 -7 10 -14 14 -14 9
0 -5 -6 -4 -12 2 -7 5 -34 13 -60 16 -51 8 -63 18 -54 43 8 20 75 14 130 -12z
m90 -95 c16 -42 22 -110 9 -110 -14 0 -34 17 -32 26 2 10 -6 35 -23 71 -8 17
-8 26 2 38 19 23 26 19 44 -25z"/>
<path d="M6480 7860 c-1 -14 -1 -29 0 -35 1 -5 3 -16 3 -22 0 -7 3 -11 5 -8 3
3 11 -3 19 -13 13 -15 13 -14 3 6 -7 13 -9 35 -5 49 3 15 2 22 -4 19 -5 -4
-12 2 -14 11 -3 13 -5 11 -7 -7z"/>
<path d="M3746 7853 c-6 -14 -5 -15 5 -6 7 7 10 15 7 18 -3 3 -9 -2 -12 -12z"/>
<path d="M4573 7854 c-19 -20 -16 -38 3 -20 8 9 14 20 12 25 -2 5 -9 3 -15 -5z"/>
<path d="M6521 7804 c0 -11 3 -14 6 -6 3 7 2 16 -1 19 -3 4 -6 -2 -5 -13z"/>
<path d="M4710 7800 c-8 -4 -33 -11 -54 -15 -22 -3 -48 -12 -58 -19 -16 -12
-15 -15 18 -44 32 -29 42 -32 100 -32 105 0 219 -28 332 -80 105 -50 128 -49
72 5 -16 16 -30 34 -30 39 0 6 -13 20 -29 31 -16 10 -27 23 -25 27 5 7 -10 12
-28 9 -5 0 -8 5 -8 12 0 7 -12 14 -27 15 -14 1 -34 9 -43 17 -21 19 -114 39
-146 31 -13 -4 -32 -2 -42 3 -10 5 -24 6 -32 1z"/>
<path d="M6544 7695 c-4 -8 -15 -15 -25 -15 -23 0 -26 -32 -4 -50 20 -17 31
-5 39 43 7 37 1 50 -10 22z"/>
<path d="M4071 7625 c9 -9 23 -13 32 -9 28 10 19 24 -15 24 -29 0 -31 -2 -17
-15z"/>
<path d="M4388 7616 c-58 -21 -91 -42 -137 -86 -39 -37 -73 -96 -69 -122 2
-14 -2 -22 -9 -21 -19 4 -36 -76 -30 -147 4 -60 12 -89 35 -130 5 -8 15 -28
23 -44 20 -41 35 -42 42 -4 8 48 47 129 58 122 7 -4 6 -10 0 -18 -13 -15 3
-172 19 -191 5 -6 7 -15 4 -18 -6 -5 1 -15 34 -52 6 -7 12 -18 12 -23 0 -5 10
-16 23 -25 15 -10 19 -18 12 -25 -7 -8 -25 -3 -57 13 -26 13 -64 27 -85 30
-21 3 -48 8 -61 11 -19 4 -21 2 -13 -13 5 -10 15 -33 22 -51 14 -38 94 -118
114 -114 7 1 20 -6 27 -17 19 -27 59 -41 118 -41 27 0 51 -4 54 -9 6 -8 94 4
105 14 3 3 0 15 -7 26 -11 17 -9 21 13 29 14 5 25 14 25 20 0 6 5 8 10 5 6 -3
10 0 10 9 0 8 -5 16 -12 18 -22 8 1 36 34 43 18 4 42 13 53 19 40 26 97 39
105 26 5 -8 13 -3 26 19 12 21 20 27 26 18 5 -7 8 0 8 19 0 33 22 60 40 49 5
-3 10 -2 10 3 0 5 6 9 13 9 9 0 -1 -34 -30 -106 -48 -119 -51 -136 -25 -150
21 -11 135 10 187 34 43 21 113 91 137 139 39 76 60 176 38 176 -5 0 -10 -4
-10 -10 0 -10 -83 -70 -98 -70 -12 0 -4 39 11 58 6 7 8 46 4 95 -6 92 -41 199
-84 256 -39 54 -106 121 -119 121 -6 0 -18 7 -25 16 -29 36 -137 73 -229 79
l-65 4 45 -20 c25 -11 72 -29 105 -40 83 -28 134 -63 151 -106 9 -19 13 -37
10 -40 -3 -3 -27 6 -55 20 -28 13 -47 28 -43 32 4 3 3 6 -3 4 -14 -3 -61 11
-110 32 -30 13 -64 17 -135 16 -82 -2 -106 -6 -175 -35 -44 -18 -97 -48 -118
-67 -21 -19 -43 -35 -48 -35 -6 0 -7 -6 -3 -12 5 -10 4 -10 -7 0 -11 10 -11
16 -1 32 6 11 12 36 12 56 0 32 21 70 32 58 3 -2 18 1 35 6 22 8 38 26 58 66
15 30 26 56 24 57 -2 2 -30 -6 -61 -17z m233 -207 c19 -6 53 -20 76 -30 24
-10 48 -19 55 -19 17 0 66 -31 106 -68 47 -43 76 -136 66 -217 -6 -54 -8 -57
-16 -32 -5 15 -14 27 -19 27 -5 0 -9 10 -9 23 0 12 -14 40 -30 61 -17 22 -30
45 -30 51 0 12 -107 115 -120 115 -4 0 -10 6 -13 14 -6 16 -93 66 -116 66 -14
0 -14 2 -1 10 18 12 11 12 51 -1z m-76 -149 c-7 -11 -85 -53 -85 -46 0 7 73
56 83 56 4 0 5 -5 2 -10z m42 4 c-3 -3 -12 -4 -19 -1 -8 3 -5 6 6 6 11 1 17
-2 13 -5z m125 -75 c18 -22 47 -46 64 -54 30 -12 30 -13 30 -82 -1 -49 -7 -81
-21 -107 -11 -20 -23 -36 -26 -36 -12 0 -17 53 -12 107 5 45 2 58 -23 97 -25
40 -34 46 -62 46 -30 0 -33 2 -26 23 8 26 23 47 35 47 4 0 23 -18 41 -41z
m-287 -19 c-3 -5 -1 -10 4 -10 6 0 11 -10 11 -23 0 -32 30 -117 41 -117 5 0 9
9 9 20 0 12 11 32 25 46 23 23 27 24 41 9 9 -9 14 -19 10 -22 -3 -3 10 -26 30
-50 l35 -43 -23 -9 c-20 -9 -20 -10 -3 -10 12 -1 16 -4 9 -11 -16 -16 -76 6
-101 37 -24 30 -29 21 -13 -21 8 -23 7 -26 -11 -26 -20 0 -82 29 -109 52 -58
49 -79 130 -43 170 17 19 100 27 88 8z m262 -86 c2 -7 -7 -14 -21 -18 -42 -10
-80 16 -38 27 27 8 55 3 59 -9z m-52 -354 c3 -5 -1 -10 -9 -10 -9 0 -16 5 -16
10 0 6 4 10 9 10 6 0 13 -4 16 -10z"/>
<path d="M6484 7602 c-13 -16 -19 -38 -19 -72 0 -46 1 -48 18 -32 14 12 17 26
13 57 -3 24 -2 31 2 16 l7 -24 13 28 c7 15 10 30 7 33 -3 3 -5 -1 -6 -9 0 -8
-4 -6 -8 6 -7 19 -8 18 -27 -3z"/>
<path d="M3986 7552 c-4 -7 -4 -21 -1 -32 5 -16 9 -18 26 -7 22 14 25 27 5 27
-8 0 -16 5 -18 12 -3 9 -6 9 -12 0z"/>
<path d="M6438 7460 c-12 -7 -15 -20 -11 -47 4 -34 1 -40 -26 -55 -21 -11 -31
-25 -31 -40 0 -22 3 -23 103 -25 122 -2 257 -24 353 -57 62 -22 91 -35 182
-85 55 -30 157 -146 202 -230 24 -46 51 -86 58 -89 8 -3 44 6 81 19 96 35 199
32 275 -6 138 -70 191 -202 151 -381 -10 -43 -19 -84 -22 -90 -2 -6 22 -17 59
-27 193 -47 289 -126 349 -283 22 -57 23 -73 25 -399 1 -301 4 -354 23 -460
38 -206 106 -380 191 -487 22 -28 40 -53 40 -57 0 -4 -20 -33 -45 -66 -85
-115 -139 -249 -182 -455 -24 -119 -25 -142 -27 -475 -2 -345 -2 -351 -26
-410 -59 -147 -123 -208 -272 -259 l-93 -31 -6 -105 c-5 -106 -12 -126 -63
-202 -27 -40 -110 -89 -178 -105 -67 -15 -131 -7 -221 28 -26 11 -51 19 -55
19 -4 0 -32 -44 -62 -97 -30 -53 -76 -118 -101 -144 -113 -116 -278 -188 -514
-224 -36 -5 -43 -3 -72 28 l-32 34 56 7 c136 16 273 53 357 95 55 29 140 97
177 142 20 24 57 85 84 134 26 50 53 95 59 102 8 9 31 4 96 -18 106 -36 184
-46 236 -29 59 19 114 68 140 124 20 44 24 67 24 161 l0 110 103 28 c56 16
120 41 142 56 64 43 111 114 135 205 21 75 22 94 15 311 -7 249 3 435 30 555
40 174 95 313 170 425 l36 55 -23 32 c-13 18 -26 35 -29 38 -12 10 -86 175
-107 240 -12 36 -33 120 -47 188 -22 106 -26 154 -28 330 -1 114 -1 263 1 332
3 105 0 136 -18 194 -12 38 -29 81 -38 95 -25 41 -84 101 -115 117 -29 16
-187 66 -244 79 -27 5 -32 10 -28 28 51 229 54 270 22 340 -37 81 -121 137
-207 137 -23 0 -87 -16 -143 -35 -56 -19 -106 -35 -112 -35 -5 0 -26 30 -45
67 -75 145 -124 209 -200 265 -58 43 -144 84 -222 107 -40 12 -91 27 -113 33
-22 6 -45 15 -50 19 -11 8 -177 4 -235 -6 -77 -13 -80 -15 -80 -39 0 -17 -7
-26 -23 -30 -41 -10 -77 -45 -77 -75 0 -15 -8 -35 -18 -44 -29 -27 -35 -20
-12 13 12 17 17 30 11 30 -5 0 -24 -20 -42 -45 -34 -47 -39 -51 -54 -36 -6 5
-24 12 -41 15 -25 6 -38 2 -63 -20 -27 -22 -38 -26 -73 -21 -32 4 -45 1 -62
-14 -18 -17 -19 -21 -6 -29 27 -17 -22 -11 -50 6 l-25 15 25 -6 25 -6 -25 15
c-34 20 -51 20 -43 -1 6 -14 -1 -15 -57 -10 -35 4 -74 7 -87 7 -14 0 -21 4
-18 10 3 6 -4 10 -17 10 -13 0 -33 11 -44 23 -17 18 -30 22 -61 19 -38 -4 -39
-4 -49 -56 -8 -48 -8 -52 9 -48 9 2 20 8 23 13 3 5 11 9 17 9 16 -1 -34 -39
-50 -40 -7 0 -20 -14 -29 -31 -8 -17 -36 -59 -60 -92 -25 -34 -48 -73 -51 -89
-3 -15 -9 -26 -13 -23 -4 2 1 -19 10 -48 9 -29 22 -53 29 -53 24 -3 26 -5 12
-13 -12 -8 -10 -16 13 -50 32 -45 105 -86 172 -97 47 -7 138 14 211 48 45 21
183 143 183 162 0 4 -6 3 -13 -3 -8 -6 -17 -8 -20 -5 -9 9 35 64 45 58 5 -3 3
-13 -4 -22 -11 -15 -11 -15 3 -4 9 7 22 26 29 42 38 92 32 -54 -7 -180 -15
-47 -30 -87 -33 -90 -4 -3 -11 -16 -15 -30 -7 -22 -6 -23 8 -12 20 17 34 -3
17 -23 -6 -8 -8 -20 -4 -27 4 -7 3 -10 -1 -5 -5 4 -16 0 -26 -9 -10 -9 -25
-14 -34 -11 -9 4 -34 -11 -66 -41 l-51 -48 37 -36 c21 -20 60 -48 87 -63 l49
-27 32 35 c18 20 47 66 66 104 19 37 40 80 47 95 16 31 18 58 4 58 -5 0 -10
-9 -10 -20 0 -11 -4 -20 -10 -20 -20 0 -4 100 17 107 8 3 11 -6 8 -26 -2 -17
0 -31 4 -31 10 0 31 124 31 182 l0 43 39 -61 c21 -34 45 -65 52 -70 9 -5 7 3
-4 20 -26 39 -14 44 27 10 47 -40 54 -58 19 -51 -25 5 -24 2 18 -37 84 -81
121 -87 160 -23 15 23 34 56 43 74 15 31 15 32 -7 38 -26 8 -85 32 -110 46
-12 6 -24 6 -38 -2 -17 -9 -25 -6 -50 20 -35 37 -41 69 -9 49 11 -7 20 -16 20
-20 0 -4 10 -12 23 -19 12 -6 0 12 -29 42 -29 30 -59 69 -69 87 l-16 33 52
-41 c106 -84 255 -138 349 -127 105 12 187 56 232 125 28 43 43 92 28 92 -13
0 -13 37 0 45 15 10 8 66 -13 103 -22 37 -15 56 8 26 14 -18 15 -16 9 21 -4
22 -11 48 -16 58 -5 10 -6 27 -3 37 5 14 2 18 -7 15 -15 -6 -58 37 -58 58 0 6
12 0 25 -15 30 -35 41 -36 19 -3 -15 24 -15 25 2 25 11 -1 37 -9 59 -20 22
-11 44 -19 49 -20 20 0 144 -92 176 -130 33 -38 94 -141 141 -236 23 -48 19
-48 174 5 104 36 144 38 202 11 56 -25 78 -46 102 -100 23 -50 26 -97 11 -149
-5 -19 -12 -53 -15 -75 -4 -23 -12 -64 -19 -93 l-14 -52 52 -12 c180 -42 267
-79 314 -134 42 -47 57 -78 77 -155 14 -55 16 -97 10 -299 -5 -152 -3 -270 4
-331 6 -52 13 -117 16 -145 8 -61 47 -220 75 -299 20 -55 81 -180 117 -236 15
-24 14 -28 -21 -83 -146 -228 -200 -497 -194 -971 3 -236 1 -278 -15 -328 -20
-64 -67 -132 -116 -165 -31 -21 -213 -83 -245 -83 -14 0 -16 -17 -16 -122 0
-103 -3 -128 -21 -165 -36 -75 -133 -132 -202 -118 -17 4 -79 22 -136 41 -57
19 -109 33 -115 30 -6 -2 -36 -53 -66 -112 -117 -229 -277 -332 -568 -364
l-112 -13 -82 38 c-80 36 -84 37 -182 33 -82 -3 -110 -9 -146 -28 -41 -21 -59
-24 -190 -26 -80 -2 -182 -8 -228 -14 -45 -6 -87 -8 -92 -5 -6 3 -10 17 -10
30 0 23 -23 55 -40 55 -4 0 -11 11 -14 25 -4 17 -13 25 -28 25 -12 0 -32 9
-44 21 -17 16 -26 18 -41 11 -13 -7 -24 -6 -36 3 -18 13 -57 9 -57 -6 0 -5
-11 -3 -25 3 -20 9 -28 8 -43 -5 -10 -9 -27 -14 -39 -11 -14 4 -25 -1 -36 -16
-8 -11 -18 -20 -23 -19 -25 4 -42 -3 -47 -21 -8 -30 -27 -24 -27 8 0 16 8 32
20 40 11 7 20 22 20 33 0 12 8 23 20 26 11 3 20 13 20 23 0 9 11 22 25 28 14
7 28 19 31 27 4 8 17 15 29 15 13 0 25 6 27 13 3 6 16 13 29 14 94 9 129 10
129 3 0 -13 43 -20 57 -8 33 27 0 79 -39 61 -18 -8 -26 -6 -38 10 -14 17 -20
18 -39 8 -12 -7 -31 -9 -41 -6 -11 3 -29 0 -41 -8 -11 -8 -28 -13 -38 -10 -12
3 -26 -5 -38 -21 -11 -14 -23 -23 -27 -19 -8 8 -46 -26 -46 -41 0 -6 -10 -16
-22 -21 -13 -6 -24 -20 -26 -31 -4 -26 -37 -37 -53 -18 -6 7 -8 26 -4 42 4 22
2 31 -11 36 -11 4 -14 13 -10 31 4 17 0 31 -14 45 -11 11 -20 26 -19 33 3 20
-12 47 -27 47 -8 0 -14 6 -14 13 0 17 -38 52 -47 44 -3 -4 -11 3 -17 16 -8 14
-22 23 -43 25 -17 2 -37 9 -43 17 -8 10 -18 11 -35 5 -15 -6 -27 -6 -30 0 -8
13 -52 13 -60 0 -3 -5 -19 -7 -35 -3 -27 5 -31 2 -41 -25 -6 -16 -20 -32 -31
-35 -17 -5 -20 -12 -15 -39 2 -18 1 -41 -4 -50 -13 -23 -1 -47 27 -54 13 -3
26 -15 29 -25 6 -19 44 -26 59 -12 4 5 21 8 38 8 37 0 58 26 42 53 -14 21 -44
28 -54 12 -10 -16 -66 -4 -74 16 -10 26 5 62 32 80 30 20 91 26 109 12 7 -6
22 -8 32 -5 12 3 22 -1 25 -10 3 -8 10 -11 16 -8 5 3 10 1 10 -4 0 -6 3 -10 8
-9 10 3 72 -57 72 -70 0 -5 7 -15 15 -22 8 -7 15 -23 15 -37 0 -13 7 -26 15
-29 10 -4 12 -15 9 -34 -4 -15 -1 -31 5 -34 6 -4 8 -18 5 -32 -3 -13 -1 -30 5
-38 6 -7 8 -21 5 -30 -5 -12 6 -31 36 -61 24 -24 47 -42 51 -39 4 2 13 -5 19
-16 13 -23 30 -27 30 -5 0 8 8 15 19 15 10 0 24 7 31 15 7 8 21 15 31 15 10 0
24 6 31 13 7 8 20 12 30 9 10 -2 26 -1 35 4 26 11 102 13 109 3 3 -5 15 -9 27
-9 12 0 28 -9 35 -20 7 -11 19 -20 27 -20 8 0 15 -9 15 -20 0 -10 7 -23 17
-28 20 -12 20 -12 -122 -42 -55 -11 -118 -26 -140 -32 -76 -21 -105 -26 -100
-18 6 9 -61 21 -81 13 -17 -6 -17 -15 -1 -81 8 -28 12 -54 9 -57 -11 -11 -32
-4 -32 10 0 22 -73 66 -119 72 -26 4 -42 12 -46 22 -3 9 -20 23 -39 29 -31 12
-40 10 -120 -29 -48 -22 -93 -38 -102 -35 -8 3 -12 2 -9 -4 3 -6 3 -10 -2 -11
-45 -3 -78 -11 -83 -19 -3 -5 -24 -9 -47 -8 -31 0 -40 4 -36 14 3 8 8 14 12
14 3 0 17 10 31 23 14 13 51 38 82 56 50 28 56 34 46 50 -15 24 -61 51 -86 51
-33 0 -52 26 -45 63 3 18 10 34 15 35 4 2 8 10 8 17 0 16 57 39 89 36 13 -1
28 3 32 10 6 10 11 10 22 0 9 -7 26 -9 41 -5 16 4 26 2 26 -5 0 -6 14 -11 30
-11 18 0 33 -6 36 -15 4 -8 13 -15 20 -15 8 0 25 -9 37 -20 25 -24 45 -23 61
3 13 21 -2 50 -30 56 -10 2 -25 12 -32 22 -7 11 -23 19 -35 19 -12 0 -30 7
-40 14 -9 7 -28 11 -42 8 -15 -2 -25 0 -25 7 0 14 -33 14 -47 0 -8 -8 -13 -8
-17 0 -9 14 -56 15 -56 1 0 -5 -16 -10 -35 -10 -24 0 -39 -6 -47 -20 -7 -11
-20 -20 -30 -20 -16 0 -35 -36 -25 -47 3 -3 -3 -14 -14 -26 -21 -23 -24 -42
-8 -53 8 -5 7 -9 -1 -14 -7 -4 -10 -15 -7 -25 4 -9 12 -13 18 -9 7 4 9 3 5 -4
-3 -5 0 -13 6 -15 8 -3 6 -6 -4 -6 -11 -1 -15 -6 -12 -16 4 -10 0 -15 -10 -15
-21 0 -90 -70 -112 -113 -9 -18 -20 -34 -24 -37 -26 -18 -100 -256 -100 -322
0 -30 1 -31 14 -13 13 18 16 16 39 -35 14 -29 23 -59 20 -66 -2 -6 10 -35 26
-63 17 -29 31 -58 31 -65 0 -7 9 -25 20 -39 11 -14 20 -27 20 -30 0 -2 29 -34
65 -70 74 -75 159 -133 186 -129 12 2 19 -3 19 -13 0 -9 5 -13 10 -10 6 4 17
1 25 -5 37 -31 230 -55 306 -38 24 5 60 12 79 15 38 6 60 23 60 46 0 9 5 17
11 19 11 4 30 74 21 82 -3 4 -14 6 -25 6 -19 0 -18 1 4 21 13 11 25 25 25 30
1 5 2 14 3 20 0 5 6 7 13 3 7 -4 8 -3 4 4 -4 7 -1 12 9 12 9 0 14 4 10 10 -7
11 29 50 47 50 6 0 9 3 5 6 -3 3 3 23 14 43 10 20 20 50 23 66 2 17 6 37 9 45
12 29 14 105 3 122 -8 13 -6 22 9 38 18 20 26 21 89 15 37 -3 74 -9 82 -12 8
-3 14 1 14 11 0 9 -7 16 -16 16 -8 0 -13 4 -10 9 3 4 -14 16 -37 26 -23 9 -51
21 -62 26 -11 5 -36 10 -55 11 l-35 3 -3 58 c-3 53 -1 58 15 53 10 -3 32 -8
48 -12 34 -8 106 -46 151 -81 41 -31 68 -31 59 0 -23 74 -161 196 -199 175
-46 -26 -74 -27 -95 -4 -12 12 -21 27 -21 33 0 11 118 45 195 57 22 4 52 9 68
12 31 6 37 -11 7 -19 -20 -5 -20 -6 6 -34 33 -35 94 -124 94 -138 0 -5 11 -32
25 -60 13 -27 25 -55 25 -62 0 -6 4 -14 8 -17 12 -7 13 84 1 106 -8 16 -8 19
1 13 8 -5 11 -2 7 11 -3 11 -8 35 -11 55 -4 20 -18 59 -31 87 -28 59 -30 72
-12 73 6 0 23 2 37 4 66 10 250 25 304 25 l60 0 -38 -39 c-25 -26 -50 -41 -70
-43 -27 -4 -29 -5 -11 -13 11 -5 22 -11 25 -14 3 -3 14 -11 25 -18 11 -6 19
-15 18 -21 -1 -5 11 -22 27 -37 27 -26 42 -53 22 -41 -5 3 -9 -1 -9 -9 0 -8 5
-11 11 -7 6 3 19 5 30 3 16 -2 15 2 -8 32 l-26 35 97 32 c53 18 143 55 200 83
57 27 106 47 108 45 3 -2 -16 -20 -42 -39 -153 -113 -184 -134 -240 -160 -59
-26 -71 -37 -57 -51 3 -4 37 11 74 33 38 21 74 39 79 39 6 0 25 6 43 14 18 7
60 24 93 35 33 12 79 31 103 42 24 11 48 17 53 14 21 -14 5 -33 -53 -65 -35
-18 -76 -43 -93 -55 -16 -12 -81 -46 -142 -76 -62 -29 -113 -57 -113 -62 0 -5
7 -6 15 -3 42 17 48 17 25 0 -14 -10 -33 -17 -42 -16 -17 3 -17 3 3 -80 10
-37 41 -56 34 -20 -16 79 -15 81 14 97 16 8 35 20 43 28 57 56 234 132 328
140 40 4 49 2 53 -14 7 -27 -7 -36 -203 -141 -81 -44 -101 -58 -82 -58 20 0
143 65 270 142 l32 20 0 -59 0 -58 -100 -44 c-55 -23 -100 -47 -100 -52 0 -13
1 -13 84 25 42 19 76 32 76 28 0 -4 -27 -22 -60 -41 -33 -19 -60 -38 -60 -42
0 -17 20 -18 66 -4 26 8 50 12 52 10 7 -7 -47 -85 -57 -85 -5 0 2 -22 15 -50
13 -27 24 -57 24 -67 0 -26 10 -9 14 25 4 25 1 30 -12 25 -9 -4 0 12 20 35 70
78 108 189 108 315 0 43 2 47 28 52 15 3 54 13 87 22 33 9 71 17 85 18 46 5
186 69 266 123 74 49 184 160 222 223 21 35 23 36 64 28 81 -16 170 -10 251
16 97 30 152 68 208 142 57 75 82 131 98 218 l13 70 55 24 c30 13 80 44 111
68 30 23 59 43 64 43 4 0 8 6 8 13 0 8 11 24 25 37 14 13 25 27 25 31 0 5 13
31 29 58 61 102 77 197 74 421 -4 249 -4 394 1 415 2 11 7 52 11 90 7 72 9 80
46 200 21 69 85 215 99 225 4 3 19 24 33 47 27 43 78 78 92 65 5 -4 5 -2 1 5
-7 14 63 63 89 63 9 0 13 5 10 10 -8 14 -81 50 -87 44 -6 -6 -128 117 -128
129 0 4 -11 23 -24 40 -51 68 -100 217 -126 387 -17 108 -19 165 -16 421 4
265 2 303 -14 360 -29 101 -57 168 -84 204 -14 19 -26 38 -26 42 0 30 -188
164 -247 177 l-28 7 1 100 c1 117 -14 171 -70 252 -107 156 -260 230 -436 211
-36 -3 -73 -10 -82 -15 -13 -7 -20 -4 -29 13 -21 39 -102 140 -147 181 -43 41
-138 102 -202 132 -86 40 -252 85 -365 99 -66 8 -129 17 -140 20 -11 3 -27 1
-37 -4z m162 -245 c11 -4 18 -10 15 -15 -7 -11 -93 -11 -101 1 -3 5 -13 5 -22
1 -25 -12 -82 -14 -82 -2 0 23 131 34 190 15z m-208 -27 c-18 -18 -84 -39 -79
-24 5 14 47 36 72 36 14 0 16 -3 7 -12z m304 -20 c11 -18 -4 -19 -39 -2 -20
10 -34 21 -31 25 5 9 61 -9 70 -23z m-412 -31 c-6 -17 -64 -51 -64 -38 0 11
48 51 61 51 5 0 6 -6 3 -13z m133 -29 c10 24 223 6 223 -20 0 -4 6 -8 14 -8 7
0 19 -7 26 -15 17 -21 -11 -20 -51 0 -34 18 -199 25 -261 12 -25 -5 -38 -4
-38 3 0 6 14 13 30 17 17 3 30 11 30 17 0 6 5 4 11 -4 8 -11 12 -12 16 -2z
m-97 -43 c0 -7 -57 -35 -72 -35 -20 1 32 40 53 40 10 0 19 -2 19 -5z m322 -32
c42 -22 80 -50 103 -79 l37 -45 -35 -42 c-76 -93 -223 -138 -368 -112 -85 14
-159 44 -238 96 -48 32 -50 34 -33 52 31 35 156 112 217 134 78 28 96 31 180
30 59 0 80 -6 137 -34z m96 -9 c12 -8 22 -22 22 -30 0 -12 -7 -10 -29 8 -45
35 -39 54 7 22z m-523 -20 c-27 -21 -55 -36 -55 -30 0 12 45 46 59 46 13 -1
12 -4 -4 -16z m-95 -22 c0 -4 -7 -17 -15 -30 -14 -20 -14 -21 0 -16 8 3 15 10
15 15 0 5 8 9 17 9 14 0 12 -5 -9 -27 -15 -15 -31 -24 -34 -20 -10 10 -12 67
-2 61 4 -3 8 0 8 5 0 6 5 11 10 11 6 0 10 -3 10 -8z m-575 -31 c-6 -4 -23 -11
-40 -14 l-30 -6 30 14 c35 16 54 19 40 6z m255 -46 c80 -20 120 -38 120 -53 0
-22 -67 -109 -113 -146 -92 -74 -221 -126 -314 -126 -74 0 -213 55 -213 84 0
4 12 31 26 60 41 82 124 149 229 182 53 17 197 17 265 -1z m110 -21 c0 -2 -11
2 -25 8 -14 6 -25 15 -25 20 0 5 11 1 25 -8 14 -9 25 -18 25 -20z m856 -42
c-26 -42 -44 -58 -53 -49 -5 6 69 98 75 92 2 -2 -8 -21 -22 -43z m-626 -7 c20
-24 6 -28 -15 -5 -10 11 -13 20 -8 20 6 0 16 -7 23 -15z m83 -52 c9 -3 17 -9
17 -14 0 -12 -6 -11 -40 6 -32 17 -41 32 -12 20 9 -4 25 -10 35 -12z m-48 -51
c-7 -7 -55 39 -55 52 0 5 13 -3 30 -19 16 -16 28 -31 25 -33z m510 31 c-38
-28 -55 -35 -55 -21 0 13 61 49 70 41 3 -3 -4 -11 -15 -20z m-575 -14 c0 -6
-4 -7 -10 -4 -5 3 -10 11 -10 16 0 6 5 7 10 4 6 -3 10 -11 10 -16z m666 -24
c-9 -14 -21 -25 -26 -25 -6 0 -10 -6 -10 -14 0 -15 -49 -51 -58 -42 -3 3 10
21 30 39 20 17 44 45 54 61 10 16 20 23 22 17 2 -6 -3 -23 -12 -36z m-470 19
c13 -3 24 -10 24 -15 0 -12 -5 -11 -45 5 -34 15 -51 34 -19 22 9 -3 27 -9 40
-12z m-416 -2 c0 -14 -39 -46 -47 -39 -3 4 2 16 12 27 19 21 35 26 35 12z m40
-32 c-7 -16 -16 -30 -21 -30 -12 0 -11 6 7 41 20 39 31 30 14 -11z m135 -15
c4 -21 3 -25 -3 -15 -15 24 -26 67 -14 55 6 -5 13 -23 17 -40z m545 36 c0 -12
-60 -32 -73 -24 -5 3 3 12 19 19 35 15 54 17 54 5z m-630 -56 c0 -24 -4 -47
-10 -50 -6 -4 -10 15 -10 50 0 35 4 54 10 50 6 -3 10 -26 10 -50z m445 34 c5
-5 -2 -9 -17 -9 -32 0 -58 9 -58 21 0 10 61 0 75 -12z m-276 -25 c23 -39 25
-44 13 -44 -5 0 -18 18 -31 40 -28 49 -11 54 18 4z m371 26 c0 -5 -7 -11 -15
-11 -8 -1 -21 -2 -27 -3 -29 -5 -31 9 -3 15 45 10 45 10 45 -1z m-285 -16 c36
-23 31 -39 -5 -17 -16 9 -30 21 -30 25 0 12 8 10 35 -8z m-430 -44 c-30 -31
-45 -38 -45 -19 0 14 41 48 59 49 10 0 4 -11 -14 -30z m255 -31 c0 -16 -4 -29
-10 -29 -5 0 -10 16 -10 36 0 21 4 33 10 29 6 -3 10 -19 10 -36z m300 -1 c0
-11 -7 -10 -40 7 -42 22 -37 38 5 18 19 -9 35 -20 35 -25z m292 4 c-25 -20
-72 -27 -72 -12 0 6 9 10 19 10 11 0 23 5 26 10 3 6 16 10 28 10 l22 0 -23
-18z m-538 -32 c11 -22 17 -43 13 -46 -7 -7 -47 55 -47 74 0 24 15 11 34 -28z
m-369 20 c-3 -6 -19 -17 -36 -25 -22 -12 -29 -13 -29 -3 0 7 10 18 23 24 29
15 50 17 42 4z m710 -11 c5 -6 1 -9 -10 -9 -32 0 -65 12 -65 22 0 11 60 1 75
-13z m-1115 -4 c7 -8 19 -15 28 -15 8 0 12 -3 9 -6 -8 -9 -67 16 -67 27 0 14
16 11 30 -6z m1230 5 c0 -13 -66 -24 -82 -14 -9 6 -2 11 22 15 54 10 60 10 60
-1z m-595 -33 c-2 -7 -6 -24 -9 -39 -10 -43 -28 -34 -20 10 4 20 9 40 11 45 7
11 23 -2 18 -16z m-315 4 c0 -7 -51 -31 -66 -31 -13 0 0 19 19 28 28 13 47 15
47 3z m170 -5 c0 -19 -53 -61 -58 -46 -4 11 36 57 51 59 4 1 7 -5 7 -13z
m-364 -17 c6 -10 -26 -12 -50 -3 -9 3 -16 9 -16 13 0 10 59 1 66 -10z m590 -5
c-3 -9 -6 -31 -6 -50 0 -19 -4 -34 -10 -34 -11 0 -13 42 -4 78 4 12 11 22 16
22 6 0 7 -7 4 -16z m-491 -4 c-7 -12 -65 -10 -65 2 0 4 16 8 36 8 21 0 33 -4
29 -10z m804 -45 c21 -21 9 -27 -30 -14 -41 14 -61 28 -54 39 7 11 65 -6 84
-25z m-1012 0 c20 -17 23 -24 12 -25 -8 0 -26 11 -39 25 -30 32 -10 33 27 0z
m373 -15 c-26 -20 -50 -26 -50 -12 0 10 63 42 70 35 3 -2 -6 -13 -20 -23z
m-270 -42 c0 -10 -1 -10 -39 3 -43 15 -40 30 4 16 19 -6 35 -14 35 -19z m482
-1 c-11 -35 -28 -60 -40 -56 -7 3 -3 20 9 47 20 43 43 50 31 9z m-282 14 c0
-10 -35 -21 -65 -21 -18 1 -17 2 5 15 28 16 60 19 60 6z m723 -20 c-5 -20 -43
-61 -43 -47 0 12 22 51 34 58 15 10 15 11 9 -11z m-823 -1 c0 -5 -18 -10 -40
-10 -22 0 -40 5 -40 10 0 6 18 10 40 10 22 0 40 -4 40 -10z m730 -30 c24 -20
29 -28 15 -24 -39 11 -65 28 -65 41 0 20 12 16 50 -17z m-288 -126 c-2 -13 -8
-24 -12 -24 -5 0 -12 -9 -15 -20 -3 -11 -13 -20 -21 -20 -16 0 -19 21 -5 36 5
5 14 26 21 47 11 34 13 36 24 21 7 -9 11 -27 8 -40z m-182 -18 c0 -16 -51 -56
-71 -56 -7 0 2 16 21 35 37 38 50 43 50 21z m90 -120 c-44 -48 -59 -35 -18 14
18 22 37 35 42 30 4 -4 -6 -24 -24 -44z m-120 19 c7 -8 19 -15 26 -15 8 0 14
-4 14 -10 0 -17 -25 -11 -48 10 -12 12 -22 23 -22 25 0 10 18 4 30 -10z
m-1130 -3381 c0 -8 -4 -12 -10 -9 -5 3 -10 10 -10 16 0 5 5 9 10 9 6 0 10 -7
10 -16z m90 -4 c0 -5 -7 -10 -15 -10 -8 0 -15 5 -15 10 0 6 7 10 15 10 8 0 15
-4 15 -10z m-160 -15 c0 -9 -6 -12 -15 -9 -8 4 -15 10 -15 15 0 5 7 9 15 9 8
0 15 -7 15 -15z m220 -15 c0 -5 -7 -10 -15 -10 -8 0 -15 5 -15 10 0 6 7 10 15
10 8 0 15 -4 15 -10z m-270 -30 c0 -5 -4 -10 -10 -10 -5 0 -10 5 -10 10 0 6 5
10 10 10 6 0 10 -4 10 -10z m330 -11 c0 -5 -7 -9 -15 -9 -9 0 -12 6 -9 15 6
15 24 11 24 -6z m50 -60 c0 -5 -7 -9 -15 -9 -15 0 -20 12 -9 23 8 8 24 -1 24
-14z m-380 -9 c0 -5 -4 -10 -10 -10 -5 0 -10 5 -10 10 0 6 5 10 10 10 6 0 10
-4 10 -10z m130 -26 c0 -8 -5 -12 -10 -9 -6 4 -8 11 -5 16 9 14 15 11 15 -7z
m-70 -14 c0 -5 -7 -10 -16 -10 -8 0 -12 5 -9 10 3 6 10 10 16 10 5 0 9 -4 9
-10z m682 -5 c0 -5 -5 -11 -11 -13 -6 -2 -11 4 -11 13 0 9 5 15 11 13 6 -2 11
-8 11 -13z m76 4 c-2 -6 -8 -10 -13 -10 -5 0 -11 4 -13 10 -2 6 4 11 13 11 9
0 15 -5 13 -11z m72 -20 c0 -5 -7 -9 -15 -9 -9 0 -12 6 -9 15 6 15 24 11 24
-6z m-480 1 c0 -5 -7 -10 -15 -10 -8 0 -15 5 -15 10 0 6 7 10 15 10 8 0 15 -4
15 -10z m262 -15 c0 -5 -5 -11 -11 -13 -6 -2 -11 4 -11 13 0 9 5 15 11 13 6
-2 11 -8 11 -13z m-64 -44 c3 -8 -1 -12 -9 -9 -7 2 -15 10 -17 17 -3 8 1 12 9
9 7 -2 15 -10 17 -17z m-178 -11 c0 -5 -4 -10 -10 -10 -5 0 -10 5 -10 10 0 6
5 10 10 10 6 0 10 -4 10 -10z m130 -40 c0 -5 -4 -10 -9 -10 -6 0 -13 5 -16 10
-3 6 1 10 9 10 9 0 16 -4 16 -10z m-510 -15 c0 -8 -7 -15 -15 -15 -16 0 -20
12 -8 23 11 12 23 8 23 -8z m67 -11 c-9 -9 -28 6 -21 18 4 6 10 6 17 -1 6 -6
8 -13 4 -17z m-137 -9 c0 -8 -4 -15 -9 -15 -13 0 -22 16 -14 24 11 11 23 6 23
-9z m210 0 c0 -9 -6 -12 -15 -9 -8 4 -12 10 -9 15 8 14 24 10 24 -6z m250 0
c0 -8 -4 -15 -10 -15 -5 0 -10 7 -10 15 0 8 5 15 10 15 6 0 10 -7 10 -15z
m-190 -30 c0 -8 -4 -15 -10 -15 -5 0 -10 7 -10 15 0 8 5 15 10 15 6 0 10 -7
10 -15z m270 7 c0 -13 -12 -22 -22 -16 -10 6 -1 24 13 24 5 0 9 -4 9 -8z
m-600 -12 c0 -5 -4 -10 -10 -10 -5 0 -10 5 -10 10 0 6 5 10 10 10 6 0 10 -4
10 -10z m870 -21 c0 -5 -7 -9 -15 -9 -15 0 -20 12 -9 23 8 8 24 -1 24 -14z
m-470 -10 c0 -5 -7 -9 -15 -9 -15 0 -20 12 -9 23 8 8 24 -1 24 -14z m390 2 c0
-6 -4 -13 -10 -16 -5 -3 -10 1 -10 9 0 9 5 16 10 16 6 0 10 -4 10 -9z m150 -6
c0 -8 -4 -15 -10 -15 -5 0 -10 7 -10 15 0 8 5 15 10 15 6 0 10 -7 10 -15z
m-412 -6 c-2 -6 -8 -10 -13 -10 -5 0 -11 4 -13 10 -2 6 4 11 13 11 9 0 15 -5
13 -11z m184 -21 c-9 -9 -12 -7 -12 12 0 19 3 21 12 12 9 -9 9 -15 0 -24z
m-152 7 c0 -8 -4 -15 -10 -15 -5 0 -10 7 -10 15 0 8 5 15 10 15 6 0 10 -7 10
-15z m450 -10 c0 -8 -7 -15 -15 -15 -16 0 -20 12 -8 23 11 12 23 8 23 -8z
m-1040 -5 c0 -5 -4 -10 -10 -10 -5 0 -10 5 -10 10 0 6 5 10 10 10 6 0 10 -4
10 -10z m680 -10 c0 -5 -4 -10 -10 -10 -5 0 -10 5 -10 10 0 6 5 10 10 10 6 0
10 -4 10 -10z m408 -42 c-6 -18 -28 -21 -28 -4 0 9 7 16 16 16 9 0 14 -5 12
-12z m766 -34 c25 -4 46 -11 46 -15 0 -5 -4 -9 -10 -9 -5 0 -47 -18 -92 -39
-100 -47 -189 -84 -193 -79 -14 13 150 148 179 148 13 0 44 -3 70 -6z m-180
-42 c-63 -62 -153 -132 -170 -132 -13 0 -13 4 3 30 26 44 71 85 127 114 72 38
87 33 40 -12z m321 -18 c9 -9 13 -20 8 -25 -8 -8 -187 -79 -199 -79 -4 0 6 10
22 22 16 12 31 25 34 28 15 17 96 70 106 70 7 0 20 -7 29 -16z m89 -103 c12
-13 14 -21 6 -26 -6 -4 -14 -5 -16 -2 -3 3 -31 -1 -62 -8 -60 -14 -75 -13 -45
4 10 5 34 19 53 30 44 25 43 25 64 2z m-1940 -86 c-9 -28 -21 -59 -27 -70 -12
-21 -14 -41 -22 -239 -3 -80 -1 -123 6 -132 6 -8 9 -23 6 -34 -3 -11 -1 -22 4
-25 4 -3 5 -13 2 -21 -3 -9 -1 -19 4 -23 16 -10 25 -61 12 -61 -8 0 -6 -7 4
-18 10 -10 17 -24 17 -32 0 -25 -67 75 -86 129 -10 29 -29 63 -41 75 -13 11
-23 30 -23 41 0 11 -7 42 -15 69 -17 54 -20 127 -6 141 4 6 17 34 27 64 14 39
37 74 83 123 36 37 66 66 67 65 2 -1 -4 -25 -12 -52z m261 -4 c-5 -16 -1 -20
22 -19 60 2 101 -30 87 -67 -6 -14 -8 -13 -21 5 -8 11 -18 18 -22 15 -5 -2
-19 4 -31 15 -13 11 -28 20 -34 20 -6 0 -38 -25 -70 -55 -63 -59 -87 -69 -36
-15 29 31 34 42 31 67 -2 12 54 53 72 53 5 0 6 -9 2 -19z m-75 -45 c0 -2 -8
-10 -17 -17 -16 -13 -17 -12 -4 4 13 16 21 21 21 13z m717 -38 c-3 -8 -6 -5
-6 6 -1 11 2 17 5 13 3 -3 4 -12 1 -19z m-544 -151 c-3 -18 -12 -39 -19 -47
-12 -12 -14 -4 -14 55 l1 70 19 -23 c14 -17 18 -32 13 -55z m1610 35 c-2 -11
-20 -22 -43 -29 -22 -5 -37 -6 -34 -1 4 6 68 44 81 48 0 0 -1 -8 -4 -18z
m-1854 -66 c-12 -14 1 -35 18 -29 12 5 14 3 8 -7 -5 -8 3 -22 25 -41 19 -17
27 -30 19 -30 -8 -1 -38 -3 -67 -4 l-53 -3 4 63 c3 36 13 76 23 95 l19 32 6
-34 c3 -18 2 -37 -2 -42z m150 5 l20 -28 -26 -12 c-31 -14 -35 -11 -40 34 -4
44 17 47 46 6z m307 -127 c11 -75 -3 -147 -36 -184 -25 -29 -36 -33 -75 -32
-26 0 -51 7 -60 15 -14 14 -12 21 16 69 17 29 40 64 50 77 11 13 19 29 19 36
0 19 53 73 67 68 7 -3 15 -25 19 -49z m-352 -134 c32 -5 61 -12 64 -15 22 -22
-73 -23 -98 -1 -8 8 -24 16 -35 20 -11 3 -26 15 -33 27 l-13 20 28 -20 c16
-12 55 -26 87 -31z m251 -160 c-3 -5 -12 -10 -18 -10 -7 0 -6 4 3 10 19 12 23
12 15 0z"/>
<path d="M1908 7093 c7 -3 16 -2 19 1 4 3 -2 6 -13 5 -11 0 -14 -3 -6 -6z"/>
<path d="M5598 6973 c7 -3 16 -2 19 1 4 3 -2 6 -13 5 -11 0 -14 -3 -6 -6z"/>
<path d="M1380 6830 c0 -5 5 -10 11 -10 5 0 7 5 4 10 -3 6 -8 10 -11 10 -2 0
-4 -4 -4 -10z"/>
<path d="M2376 6816 c-127 -35 -154 -171 -38 -192 51 -9 62 -20 62 -63 0 -30
6 -40 35 -59 85 -58 165 27 165 175 0 99 -6 118 -37 132 -40 19 -134 22 -187
7z"/>
<path d="M3385 6458 c-41 -85 -392 -773 -495 -973 -31 -60 -64 -124 -73 -142
-22 -41 -47 -34 -73 20 -30 66 -85 64 -123 -4 -19 -33 -23 -51 -19 -100 l4
-59 -46 0 c-52 0 -65 -7 -49 -27 7 -8 32 -13 64 -13 29 0 73 -3 98 -6 l46 -7
-147 -288 c-81 -158 -143 -291 -139 -295 18 -19 45 24 161 251 67 132 135 264
150 293 l29 52 669 -2 669 -3 153 -300 c84 -164 158 -301 165 -303 6 -2 13 3
16 11 3 7 -150 324 -341 703 -606 1202 -641 1269 -661 1272 -14 2 -28 -18 -58
-80z m386 -625 l318 -633 -621 0 c-587 0 -620 1 -613 18 11 25 8 54 -7 63 -9
6 15 63 93 216 372 740 504 994 508 982 2 -7 147 -298 322 -646z m-1017 -608
c-4 -8 -11 -15 -16 -15 -6 0 -5 6 2 15 7 8 14 15 16 15 2 0 1 -7 -2 -15z m-37
-11 c-3 -3 -12 -4 -19 -1 -8 3 -5 6 6 6 11 1 17 -2 13 -5z m120 0 c-3 -3 -12
-4 -19 -1 -8 3 -5 6 6 6 11 1 17 -2 13 -5z"/>
<path d="M4670 5680 c0 -815 1 -861 18 -858 16 3 17 52 17 858 0 806 -1 855
-17 858 -17 3 -18 -43 -18 -858z"/>
<path d="M1270 6500 c-12 -8 -10 -10 8 -10 13 0 20 4 17 10 -7 12 -6 12 -25 0z"/>
<path d="M1184 6424 c3 -9 6 -21 6 -27 0 -6 6 -2 14 8 16 22 12 35 -11 35 -10
0 -13 -6 -9 -16z"/>
<path d="M5068 6174 c-4 -6 4 -22 18 -37 29 -31 31 -32 31 -12 0 8 -4 12 -9 9
-4 -3 -8 2 -8 11 0 9 -4 14 -9 10 -5 -3 -11 3 -13 12 -2 11 -6 14 -10 7z"/>
<path d="M930 6000 c0 -4 6 -13 14 -20 12 -9 15 -8 13 8 -1 17 -27 28 -27 12z"/>
<path d="M5038 5918 c-24 -20 -28 -44 -12 -67 21 -29 60 -27 80 4 15 23 15 27
0 50 -18 27 -43 32 -68 13z"/>
<path d="M950 5552 l5 -47 3 39 c2 21 0 42 -5 47 -4 4 -6 -13 -3 -39z"/>
<path d="M947 5469 c7 -7 15 -10 18 -7 3 3 -2 9 -12 12 -14 6 -15 5 -6 -5z"/>
<path d="M5057 5444 c-4 -4 -7 -146 -7 -316 0 -289 1 -309 18 -306 16 3 17 26
17 312 0 295 -4 334 -28 310z"/>
<path d="M5416 5434 c-3 -9 -6 -150 -6 -315 0 -287 1 -299 19 -299 10 0 22 7
25 16 3 9 6 105 6 214 l0 198 35 31 c105 92 228 142 301 122 109 -29 124 -75
124 -368 0 -206 1 -213 20 -213 19 0 20 7 20 218 0 249 -10 305 -61 358 -82
85 -247 62 -385 -54 -23 -19 -46 -33 -50 -31 -5 2 -10 24 -10 49 -3 84 -4 90
-18 90 -8 0 -17 -7 -20 -16z"/>
<path d="M6399 5432 c-105 -39 -177 -116 -204 -218 -20 -76 -19 -119 4 -192
22 -72 47 -109 105 -157 114 -93 342 -75 454 35 57 57 35 83 -28 32 -88 -71
-106 -77 -225 -77 -108 0 -112 1 -160 33 -69 45 -102 98 -119 194 l-7 38 293
2 293 3 3 43 c6 87 -69 197 -171 249 -67 34 -171 41 -238 15z m182 -38 c70
-20 131 -74 165 -148 43 -92 61 -86 -250 -86 l-274 0 8 33 c22 94 89 170 177
200 62 20 103 21 174 1z"/>
<path d="M865 5096 c-17 -19 -17 -53 0 -60 12 -4 15 0 12 22 -2 16 2 31 11 38
12 9 12 11 0 11 -7 0 -18 -5 -23 -11z"/>
<path d="M846 5021 c-3 -5 4 -11 16 -14 30 -8 35 -1 9 12 -11 6 -22 7 -25 2z"/>
<path d="M3763 4795 c116 -20 162 -41 211 -96 50 -56 68 -113 65 -203 -3 -66
-17 -126 -31 -126 -4 0 -8 -6 -8 -13 0 -7 -21 -36 -46 -65 -53 -60 -67 -63
-166 -32 -105 33 -199 21 -250 -31 -16 -17 -16 -19 0 -39 29 -35 115 -52 197
-39 39 6 85 18 104 25 49 20 64 18 99 -19 31 -32 31 -33 27 -117 -13 -270 -59
-343 -261 -413 -173 -60 -275 -67 -371 -26 -59 25 -54 15 10 -18 49 -26 59
-28 191 -28 103 0 140 3 144 13 2 6 14 12 27 12 21 0 55 12 135 48 49 21 144
121 176 183 22 45 27 67 28 144 1 81 -2 95 -25 135 -15 25 -43 60 -63 78 -20
18 -36 36 -36 40 0 4 13 16 29 25 49 29 120 106 148 161 55 108 38 250 -40
326 -59 56 -136 82 -266 86 l-106 3 78 -14z m30 -552 c32 -12 47 -22 45 -32
-8 -39 -181 -67 -238 -38 -37 19 -39 60 -3 74 44 17 143 15 196 -4z"/>
<path d="M3590 4790 c-10 -6 -2 -7 25 -3 49 7 58 13 19 13 -16 0 -36 -5 -44
-10z"/>
<path d="M3530 4770 c-8 -5 -10 -10 -5 -10 6 0 17 5 25 10 8 5 11 10 5 10 -5
0 -17 -5 -25 -10z"/>
<path d="M596 4741 c-3 -5 5 -11 19 -13 28 -6 34 6 9 16 -20 8 -22 8 -28 -3z"/>
<path d="M655 4720 c3 -5 8 -10 11 -10 2 0 4 5 4 10 0 6 -5 10 -11 10 -5 0 -7
-4 -4 -10z"/>
<path d="M520 4671 c0 -6 4 -11 9 -11 5 0 11 -13 15 -30 3 -20 11 -30 23 -30
15 0 16 2 3 10 -13 9 -13 11 0 21 13 10 13 10 -1 6 -11 -3 -15 1 -15 16 1 13
-6 23 -16 25 -10 2 -18 -1 -18 -7z"/>
<path d="M3571 4628 c-13 -17 -25 -42 -27 -56 -2 -27 -47 -118 -214 -432 -48
-91 -118 -223 -155 -295 -38 -71 -83 -158 -102 -193 -18 -34 -33 -65 -33 -67
0 -3 38 -5 85 -5 60 0 87 4 89 13 3 6 14 55 26 107 11 52 25 104 30 115 5 11
24 63 41 115 17 52 35 100 39 105 4 6 10 24 14 40 4 17 13 44 21 60 40 91 95
227 95 234 0 5 9 26 19 48 19 36 53 113 72 161 5 12 14 33 21 47 16 36 7 37
-21 3z"/>
<path d="M5225 4601 c-27 -15 -63 -31 -80 -36 -29 -7 -29 -8 -8 -17 12 -6 24
-17 27 -24 6 -16 -14 -77 -49 -149 -13 -27 -43 -93 -68 -145 -24 -52 -60 -129
-80 -170 -19 -41 -54 -118 -77 -170 -23 -52 -55 -120 -70 -150 -49 -96 -60
-180 -24 -180 15 0 77 34 116 64 14 12 37 29 49 39 13 9 19 17 14 17 -4 0 -16
-7 -25 -15 -21 -19 -90 -32 -90 -17 0 6 13 37 29 69 15 32 45 96 66 143 20 47
48 108 60 135 62 133 85 186 85 195 0 6 5 10 10 10 6 0 10 6 10 14 0 11 23 67
76 183 8 18 25 61 39 95 13 35 31 80 39 101 9 20 13 37 9 37 -5 0 -30 -13 -58
-29z"/>
<path d="M3043 4563 c-39 -5 -89 -50 -99 -87 -10 -40 13 -86 48 -93 15 -3 31
-10 34 -14 3 -5 29 -9 57 -8 l52 1 -37 10 c-84 22 -116 98 -62 149 22 21 35
24 99 24 41 0 71 3 67 7 -10 10 -117 17 -159 11z"/>
<path d="M1873 4483 c-4 -10 -19 -35 -33 -55 -21 -29 -30 -34 -39 -25 -10 9
-16 8 -27 -7 -19 -26 -30 -12 -16 19 16 35 15 43 -3 19 -8 -10 -15 -27 -15
-36 0 -32 22 -118 31 -118 4 0 6 6 3 14 -9 23 12 27 31 6 17 -19 17 -21 -8
-44 -16 -15 -27 -36 -27 -51 0 -15 -5 -25 -12 -24 -31 4 -37 -1 -29 -28 4 -16
9 -55 10 -88 2 -33 5 -63 8 -67 2 -5 22 -17 44 -28 21 -11 39 -25 39 -30 0 -5
-20 -12 -45 -16 -44 -6 -45 -7 -29 -25 9 -11 28 -19 41 -19 12 0 23 -6 24 -12
1 -25 6 -54 13 -85 7 -29 5 -34 -21 -45 -15 -7 -30 -15 -33 -18 -3 -3 -17 -11
-32 -19 -45 -23 -26 -23 39 1 51 19 63 20 77 9 9 -7 16 -18 16 -24 0 -6 -3 -8
-6 -4 -10 10 -40 -26 -62 -73 -18 -38 -18 -45 -6 -48 9 -2 21 4 29 14 11 15
15 16 29 5 13 -11 21 -9 53 10 31 19 36 20 30 6 -5 -15 -3 -16 10 -8 12 6 26
5 43 -4 14 -7 59 -20 101 -30 94 -20 174 -9 250 36 59 34 70 35 94 9 10 -11
24 -20 31 -20 7 0 18 -9 24 -20 6 -11 16 -20 23 -20 7 0 6 4 -3 10 -8 5 -11
10 -6 10 5 0 18 -7 28 -17 16 -14 18 -14 18 0 0 8 -6 18 -12 21 -7 3 -1 3 14
0 20 -5 28 -1 33 15 3 12 15 21 25 21 11 0 23 6 27 14 4 7 15 16 23 19 10 4 8
6 -6 6 -12 1 -32 9 -44 19 -21 17 -21 19 -6 25 10 4 15 3 11 -3 -4 -6 7 -10
24 -10 22 0 29 4 25 14 -3 8 -1 17 5 21 19 11 12 35 -14 45 -14 5 -27 21 -31
36 -10 38 24 64 85 65 88 2 161 17 161 34 0 2 -12 0 -26 -5 -32 -13 -54 -13
-54 0 0 15 42 50 61 50 10 0 20 4 23 8 3 5 -17 4 -45 -2 -63 -13 -77 -1 -55
42 22 43 20 59 -4 37 -21 -19 -81 -16 -123 8 -89 49 -201 166 -243 253 -40 83
-43 125 -12 154 13 12 17 20 9 20 -22 0 -81 -72 -91 -112 -6 -20 -15 -40 -20
-43 -6 -3 -10 -15 -10 -25 0 -23 -18 -37 -24 -18 -21 66 -42 111 -55 116 -9 3
-26 16 -39 29 -26 26 -47 30 -38 8 3 -8 1 -15 -4 -15 -6 0 -10 -7 -10 -16 0
-9 -5 -12 -12 -8 -6 4 -8 3 -5 -3 4 -6 0 -18 -7 -28 -25 -35 -206 -13 -206 25
0 23 20 48 27 33 6 -17 56 15 50 32 -3 6 4 17 14 23 10 7 19 17 19 22 0 15
-26 12 -40 -5 -7 -8 -23 -15 -36 -15 -15 0 -24 6 -24 15 0 8 5 15 11 15 5 0 7
5 4 10 -10 16 -35 12 -42 -7z m-25 -117 c0 -19 -6 -23 -30 -24 -22 0 -28 3
-26 16 2 9 11 17 20 17 9 0 20 4 24 8 11 10 12 9 12 -17z m89 -92 c5 -16 -33
-24 -46 -11 -6 6 -11 14 -11 18 0 11 53 5 57 -7z m348 -72 c62 -31 138 -112
158 -168 22 -61 22 -182 2 -252 -21 -69 -100 -149 -173 -175 -111 -40 -252
-11 -329 69 -64 66 -86 116 -78 175 4 27 11 51 16 55 5 3 9 29 9 58 0 39 8 69
30 112 37 75 60 97 136 129 72 31 166 30 229 -3z m302 -468 c-3 -3 -12 -4 -19
-1 -8 3 -5 6 6 6 11 1 17 -2 13 -5z"/>
<path d="M6756 4481 c-9 -9 -13 -21 -9 -24 3 -4 -3 -7 -14 -7 -15 0 -22 -8
-27 -31 -5 -25 -9 -29 -26 -24 -14 4 -22 1 -26 -10 -4 -9 -13 -14 -20 -11 -7
3 -16 1 -19 -4 -4 -6 -1 -10 4 -10 6 0 11 -19 11 -41 0 -37 2 -41 21 -36 24 6
49 -1 49 -14 0 -5 -7 -9 -15 -9 -8 0 -15 -7 -15 -15 0 -8 -4 -15 -10 -15 -5 0
-10 -13 -10 -29 0 -23 -5 -30 -22 -33 -16 -2 -22 -9 -21 -23 2 -11 5 -49 7
-84 6 -71 16 -88 64 -108 45 -19 35 -37 -22 -41 -40 -3 -46 -5 -36 -18 7 -8
20 -14 30 -14 25 0 47 -30 53 -75 3 -22 8 -48 12 -57 5 -14 2 -18 -14 -18 -12
0 -21 -4 -21 -10 0 -5 -7 -10 -16 -10 -8 0 -22 -7 -30 -15 -19 -19 -17 -19 36
0 55 20 63 19 78 -6 8 -12 9 -19 4 -15 -14 9 -50 -35 -67 -83 -8 -24 -15 -45
-15 -47 0 -1 12 4 28 12 35 18 42 18 42 -2 0 -11 11 -7 44 16 l44 32 39 -20
c122 -63 244 -64 354 -5 l67 36 31 -22 c17 -12 31 -19 31 -15 0 4 9 -4 21 -17
12 -13 26 -23 31 -21 6 1 17 -3 26 -10 13 -11 15 -10 10 3 -5 11 -1 16 10 15
10 -1 18 8 20 22 2 16 10 22 27 22 14 0 29 8 34 18 8 16 4 21 -25 32 -18 8
-34 17 -34 22 0 11 37 10 44 -1 10 -16 48 0 41 17 -7 18 11 32 42 32 12 0 25
5 29 11 5 9 -1 10 -20 5 -43 -11 -108 31 -99 65 8 29 40 43 111 46 61 2 125
22 75 23 -27 0 -30 18 -5 27 9 4 22 12 27 19 6 7 19 15 30 18 11 3 -3 3 -32 0
-66 -7 -79 0 -59 32 27 40 15 74 -13 40 -9 -11 -20 -12 -49 -4 -68 19 -114 49
-191 126 -114 113 -165 229 -131 293 7 11 7 19 1 19 -14 0 -67 -71 -76 -100
-25 -86 -56 -122 -63 -74 -5 31 -34 106 -39 100 -3 -3 -17 6 -32 20 -31 29
-55 28 -59 -4 -2 -12 -8 -22 -13 -22 -5 0 -9 -7 -9 -15 0 -8 -3 -15 -7 -16 -5
0 -33 -3 -63 -6 -89 -10 -105 -9 -102 5 1 7 -9 12 -24 12 -20 0 -25 4 -20 16
3 9 6 20 6 25 0 5 7 9 16 9 8 0 12 -5 8 -11 -3 -6 5 -3 20 6 14 10 26 23 26
29 0 6 7 22 16 34 13 19 18 21 32 10 13 -11 14 -11 10 2 -7 23 -51 24 -73 0
-18 -20 -41 -28 -30 -10 3 6 2 10 -3 10 -6 0 -8 8 -5 19 7 27 -11 34 -31 12z
m-33 -117 c-7 -3 -10 -11 -7 -17 2 -7 -6 -13 -21 -13 -14 -1 -25 4 -25 10 0
19 11 26 39 25 14 0 21 -3 14 -5z m92 -95 c3 -3 -2 -12 -10 -19 -14 -11 -19
-10 -37 7 l-20 21 30 -2 c17 -1 33 -4 37 -7z m158 -16 c-7 -2 -19 -2 -25 0 -7
3 -2 5 12 5 14 0 19 -2 13 -5z m161 -53 c75 -29 143 -91 177 -165 24 -49 29
-73 29 -133 0 -113 -20 -168 -86 -235 -66 -66 -127 -91 -219 -90 -125 2 -226
66 -282 181 l-26 52 22 59 c11 32 21 77 21 100 0 54 44 145 87 180 45 36 130
69 180 70 23 1 67 -8 97 -19z m383 -466 c-3 -3 -12 -4 -19 -1 -8 3 -5 6 6 6
11 1 17 -2 13 -5z"/>
<path d="M1821 4451 c-8 -5 -9 -11 -3 -15 5 -3 15 1 22 9 14 16 3 20 -19 6z"/>
<path d="M2080 4449 c0 -5 5 -7 10 -4 6 3 10 8 10 11 0 2 -4 4 -10 4 -5 0 -10
-5 -10 -11z"/>
<path d="M6632 4428 c-7 -7 -12 -19 -12 -27 0 -11 5 -8 16 7 18 25 15 39 -4
20z"/>
<path d="M3205 4399 c-4 -11 -16 -24 -28 -29 -19 -7 -19 -9 -4 -9 17 -1 18 -7
14 -53 l-6 -53 11 45 c5 25 12 52 15 60 7 20 13 60 8 60 -2 0 -7 -9 -10 -21z"/>
<path d="M2000 4360 c0 -6 11 -8 28 -4 39 10 40 14 4 14 -18 0 -32 -5 -32 -10z"/>
<path d="M6883 4353 c-18 -2 -33 -8 -33 -14 0 -5 10 -7 23 -5 12 3 32 5 45 5
13 1 20 5 17 11 -3 6 -9 9 -13 8 -4 0 -22 -3 -39 -5z"/>
<path d="M866 4323 c-4 -9 -2 -21 4 -27 7 -7 10 -2 10 17 0 31 -5 34 -14 10z"/>
<path d="M847 4264 c2 -7 11 -15 18 -18 10 -3 12 0 8 11 -5 12 -3 14 8 8 8 -4
11 -4 6 0 -12 14 -46 13 -40 -1z"/>
<path d="M2761 4154 c0 -11 3 -14 6 -6 3 7 2 16 -1 19 -3 4 -6 -2 -5 -13z"/>
<path d="M1680 4138 c1 -30 25 -63 35 -48 8 13 -13 70 -26 70 -5 0 -9 -10 -9
-22z"/>
<path d="M4630 4134 c-90 -24 -172 -54 -220 -82 -53 -30 -154 -109 -191 -149
-43 -47 -79 -133 -86 -205 -5 -62 -4 -68 20 -92 49 -49 152 -32 245 42 50 39
56 59 10 33 -47 -28 -112 -45 -141 -37 -31 7 -61 67 -52 103 11 44 85 145 157
216 39 37 74 67 79 67 4 0 14 6 21 14 46 45 175 87 268 87 34 0 40 2 25 9 -29
13 -73 11 -135 -6z"/>
<path d="M5645 4144 c-36 -8 -99 -26 -120 -35 -11 -5 -46 -18 -77 -29 -55 -20
-138 -71 -177 -108 -9 -9 -31 -29 -47 -44 -43 -40 -49 -49 -97 -142 -12 -25
-21 -128 -13 -159 3 -15 18 -29 36 -37 73 -30 168 1 254 83 53 51 62 72 14 31
-73 -61 -168 -82 -202 -45 -11 12 -18 37 -18 65 -1 38 6 56 42 108 68 98 87
119 168 181 107 82 201 119 295 117 20 0 37 4 37 10 0 10 -54 12 -95 4z"/>
<path d="M6556 4141 c-10 -15 12 -61 29 -61 19 0 19 4 0 40 -17 32 -21 35 -29
21z"/>
<path d="M5995 4128 c-16 -6 -36 -17 -43 -25 -7 -7 -16 -13 -20 -13 -14 0 -43
-64 -49 -105 -10 -73 49 -149 132 -169 35 -9 29 -1 -16 22 -43 22 -59 68 -46
134 25 124 203 172 300 80 15 -14 27 -21 27 -15 0 10 -14 23 -75 71 -38 31
-151 41 -210 20z"/>
<path d="M7641 4109 c-1 -19 6 -44 14 -55 18 -24 18 -11 1 46 l-15 45 0 -36z"/>
<path d="M2770 4098 c0 -13 5 -30 10 -38 7 -11 10 -7 10 17 0 17 -4 35 -10 38
-6 3 -10 -4 -10 -17z"/>
<path d="M4714 4062 c-7 -4 -40 -54 -75 -112 -34 -58 -69 -111 -76 -119 -8 -7
-12 -20 -9 -28 3 -8 -9 -46 -28 -86 -18 -40 -34 -87 -35 -106 -1 -30 1 -33 21
-28 37 10 139 69 104 61 -28 -7 -29 -6 -23 23 3 17 18 57 33 89 77 168 134
298 134 306 0 10 -31 10 -46 0z"/>
<path d="M5668 4043 c-8 -16 -30 -55 -48 -88 -37 -68 -69 -114 -114 -165 -17
-19 -22 -28 -11 -20 11 8 23 19 27 25 4 5 9 7 12 4 3 -2 -11 -35 -30 -73 -22
-44 -34 -83 -34 -108 0 -38 2 -40 25 -34 13 3 41 16 62 28 28 17 33 24 20 26
-9 2 -17 7 -17 11 0 19 23 71 31 71 5 0 9 6 9 14 0 12 25 73 82 196 30 64 58
131 58 136 0 2 -13 4 -28 4 -20 0 -32 -8 -44 -27z"/>
<path d="M6062 3931 c-10 -6 -3 -11 24 -15 20 -4 50 -20 66 -36 24 -25 28 -36
28 -85 0 -68 -25 -121 -76 -163 -20 -16 -50 -33 -68 -37 -17 -4 -26 -9 -19
-11 17 -7 134 25 169 47 80 49 97 202 29 262 -45 40 -121 59 -153 38z"/>
<path d="M940 3875 c0 -8 2 -15 4 -15 2 0 6 7 10 15 3 8 1 15 -4 15 -6 0 -10
-7 -10 -15z"/>
<path d="M7728 3863 c7 -3 16 -2 19 1 4 3 -2 6 -13 5 -11 0 -14 -3 -6 -6z"/>
<path d="M917 3853 c-10 -9 -8 -55 2 -72 6 -10 11 -6 20 15 l11 29 -6 -32 c-3
-17 -2 -33 3 -36 7 -5 9 26 4 78 -2 18 -3 18 -17 -5 l-15 -25 4 28 c5 29 4 31
-6 20z"/>
<path d="M6630 3856 c0 -2 11 -6 25 -8 13 -3 22 -1 19 3 -5 9 -44 13 -44 5z"/>
<path d="M2720 3830 c0 -5 7 -10 16 -10 8 0 12 5 9 10 -3 6 -10 10 -16 10 -5
0 -9 -4 -9 -10z"/>
<path d="M2770 3790 c0 -5 5 -10 10 -10 6 0 10 5 10 10 0 6 -4 10 -10 10 -5 0
-10 -4 -10 -10z"/>
<path d="M4520 3785 c-7 -9 -11 -17 -9 -20 3 -2 10 5 17 15 14 24 10 26 -8 5z"/>
<path d="M5774 3754 c-20 -19 -24 -31 -20 -51 11 -40 36 -73 78 -99 31 -20 50
-24 105 -23 l68 2 -57 7 c-106 14 -160 82 -108 138 20 21 36 26 70 23 11 -1
10 3 -4 14 -32 25 -102 19 -132 -11z"/>
<path d="M7620 3776 c0 -9 40 -13 46 -5 3 5 -6 9 -20 9 -14 0 -26 -2 -26 -4z"/>
<path d="M2812 3760 c-44 -10 -56 -25 -13 -16 18 3 48 6 65 7 26 0 28 2 11 9
-24 10 -21 10 -63 0z"/>
<path d="M2725 3739 c-10 -15 1 -23 20 -15 9 3 13 10 10 16 -8 13 -22 13 -30
-1z"/>
<path d="M7650 3740 c-12 -8 -10 -9 10 -9 14 1 39 5 55 9 29 7 29 8 -10 9 -22
0 -47 -4 -55 -9z"/>
<path d="M6820 3579 c0 -5 5 -7 10 -4 6 3 10 8 10 11 0 2 -4 4 -10 4 -5 0 -10
-5 -10 -11z"/>
<path d="M6142 3493 c-18 -38 -31 -72 -31 -77 0 -5 -4 -12 -9 -15 -11 -7 -75
-133 -86 -168 -6 -17 -3 -23 8 -23 9 0 16 6 16 13 0 7 23 60 51 117 52 105 99
209 99 216 0 2 -4 4 -8 4 -5 0 -23 -30 -40 -67z"/>
<path d="M2716 3403 c-6 -14 -5 -15 5 -6 7 7 10 15 7 18 -3 3 -9 -2 -12 -12z"/>
<path d="M4855 3409 c-4 -6 -1 -10 6 -8 34 4 48 -3 57 -28 7 -19 11 -22 11
-10 2 31 -18 57 -44 57 -13 0 -27 -5 -30 -11z"/>
<path d="M5029 3418 c0 -2 -2 -12 -4 -23 -2 -12 -20 -56 -40 -99 -20 -43 -34
-81 -31 -83 11 -11 39 17 42 40 1 14 16 55 33 90 17 36 31 68 31 71 0 6 -29 9
-31 4z"/>
<path d="M5148 3370 c-23 -29 -31 -47 -21 -43 9 4 14 2 11 -3 -18 -30 -49
-107 -44 -111 9 -9 26 8 26 25 0 9 9 32 21 51 11 18 18 35 15 38 -2 3 7 21 20
40 47 70 25 72 -28 3z"/>
<path d="M5291 3411 c-10 -6 -10 -10 -1 -13 9 -3 1 -26 -23 -76 -20 -40 -36
-73 -36 -75 0 -1 -3 -10 -7 -20 -3 -10 -4 -20 -1 -23 3 -4 22 27 43 67 20 41
44 85 53 98 13 21 14 24 1 17 -12 -7 -13 -6 -2 5 24 26 5 40 -27 20z"/>
<path d="M5376 3411 c-3 -5 9 -11 27 -14 36 -5 42 -3 32 12 -8 13 -52 15 -59
2z"/>
<path d="M5513 3413 c-7 -2 -13 -14 -13 -25 0 -11 -13 -48 -29 -81 -65 -141
-44 -145 24 -4 54 110 57 126 18 110z"/>
<path d="M5630 3396 c0 -13 -13 -50 -29 -82 -33 -69 -49 -114 -33 -99 18 17
92 168 92 187 0 10 -7 18 -15 18 -9 0 -15 -9 -15 -24z"/>
<path d="M5725 3327 c-16 -49 -33 -91 -37 -93 -13 -8 -9 -24 6 -24 8 0 17 14
21 31 4 17 20 59 36 94 32 72 34 82 17 82 -7 0 -26 -41 -43 -90z"/>
<path d="M5954 3404 c9 -8 16 -26 16 -39 0 -18 4 -23 15 -19 33 13 6 73 -33
74 -10 0 -9 -4 2 -16z"/>
<path d="M931 3378 c-10 -16 -10 -23 -2 -26 6 -2 11 -10 11 -18 0 -9 -5 -12
-12 -8 -6 4 -8 3 -4 -4 3 -5 0 -12 -6 -15 -9 -3 -5 -13 13 -32 l27 -27 -2 49
c-1 27 -5 54 -9 60 -4 6 -1 13 5 16 9 3 10 8 3 16 -8 7 -14 4 -24 -11z m10
-91 c-8 -8 -11 -7 -11 4 0 20 13 34 18 19 3 -7 -1 -17 -7 -23z"/>
<path d="M4689 3373 c-27 -32 -66 -98 -74 -123 -4 -14 -19 -47 -33 -75 -26
-49 -28 -56 -31 -74 0 -5 -13 -24 -28 -42 -24 -28 -24 -30 -6 -21 26 15 63 60
63 78 0 8 5 14 10 14 6 0 10 6 10 13 0 7 9 31 21 52 23 44 89 195 85 195 -2 0
-9 -8 -17 -17z"/>
<path d="M4519 3342 c-31 -28 -42 -47 -46 -79 -5 -35 -2 -43 16 -52 15 -9 27
-9 41 -1 25 13 26 23 2 16 -11 -4 -22 1 -30 14 -16 26 -3 59 44 104 49 48 25
47 -27 -2z"/>
<path d="M4740 3331 c-16 -31 -12 -86 8 -103 24 -22 54 -29 72 -18 12 8 9 10
-12 10 -38 0 -61 38 -55 90 5 45 2 49 -13 21z"/>
<path d="M5802 3328 c-17 -23 -7 -78 20 -105 22 -21 31 -24 55 -17 l28 8 -26
4 c-40 5 -64 37 -63 83 2 43 1 44 -14 27z"/>
<path d="M4413 3093 c-13 -8 -23 -24 -23 -36 0 -17 3 -16 22 9 12 16 27 32 33
36 6 5 6 8 0 7 -5 0 -20 -7 -32 -16z"/>
<path d="M1164 2903 c1 -20 3 -21 12 -8 9 13 13 13 17 3 3 -7 5 -4 4 7 -1 12
-8 21 -18 21 -11 0 -16 -8 -15 -23z"/>
<path d="M1180 2867 c0 -8 7 -14 15 -14 11 0 12 4 4 14 -6 7 -13 13 -15 13 -2
0 -4 -6 -4 -13z"/>
<path d="M1223 2833 c9 -2 23 -2 30 0 6 3 -1 5 -18 5 -16 0 -22 -2 -12 -5z"/>
<path d="M3113 2728 c-4 -7 -12 -26 -18 -42 -7 -20 -19 -32 -39 -37 -57 -15
-63 -65 -13 -103 27 -21 45 -26 91 -26 35 0 63 5 71 14 35 35 25 147 -17 186
-24 23 -63 26 -75 8z"/>
<path d="M2366 2595 c11 -51 31 -75 65 -75 l30 0 -23 30 c-12 17 -25 30 -28
30 -4 0 -12 10 -18 23 -7 14 -11 16 -11 7 -1 -13 -2 -13 -11 0 -8 11 -9 7 -4
-15z"/>
<path d="M1505 2490 c3 -5 8 -10 11 -10 2 0 4 5 4 10 0 6 -5 10 -11 10 -5 0
-7 -4 -4 -10z"/>
<path d="M5816 2395 c-7 -20 12 -52 36 -58 29 -8 28 5 -2 41 -22 27 -29 30
-34 17z"/>
<path d="M3920 2341 c-29 -5 -35 -11 -41 -39 -7 -37 -29 -67 -29 -41 0 8 5 20
12 27 9 9 5 12 -19 12 -35 0 -43 -13 -43 -70 0 -21 -4 -41 -9 -44 -5 -4 -7 12
-5 34 4 43 -7 51 -40 27 -16 -12 -17 -20 -9 -58 10 -46 7 -69 -7 -69 -5 0 -8
14 -8 30 1 37 -12 53 -36 44 -15 -6 -17 -14 -12 -48 4 -22 12 -43 18 -47 6 -4
7 -12 4 -18 -10 -16 -36 -14 -36 3 0 19 -37 63 -46 54 -4 -4 -2 -13 3 -20 5
-7 13 -21 16 -30 5 -14 1 -18 -19 -18 -20 0 -29 9 -43 43 -10 23 -28 48 -40
55 -22 13 -22 13 -5 -20 9 -18 23 -41 32 -50 20 -23 5 -23 -35 1 -17 11 -34
29 -38 41 -4 12 -18 26 -32 31 -34 13 -37 7 -13 -19 24 -26 25 -32 5 -32 -9 0
-27 11 -41 25 -14 14 -36 28 -49 31 -20 5 -24 2 -22 -15 1 -13 6 -20 14 -17 7
3 13 1 13 -3 0 -16 -31 -21 -36 -6 -4 10 -20 15 -46 15 -41 0 -44 -15 -5 -29
l21 -8 -21 -12 c-14 -7 -30 -8 -45 -2 -13 4 -32 5 -43 1 -19 -7 -19 -7 3 -19
19 -10 21 -15 12 -26 -9 -11 -17 -12 -30 -5 -23 12 -50 3 -50 -17 0 -8 4 -12
9 -9 12 8 34 -21 26 -34 -4 -6 -12 -7 -23 -1 -18 10 -52 -3 -52 -18 0 -5 12
-12 26 -15 30 -8 27 -31 -5 -31 -13 0 -27 -8 -32 -17 -8 -14 -5 -19 16 -24 18
-5 25 -13 25 -31 0 -21 -2 -23 -15 -13 -17 14 -35 5 -35 -17 0 -11 7 -14 25
-11 27 6 28 2 40 -67 14 -86 63 -165 169 -270 145 -145 377 -255 546 -260 36
-2 71 2 78 8 22 17 13 -4 -10 -25 -13 -11 -18 -17 -11 -14 6 4 16 -1 21 -11
16 -28 43 1 35 39 -4 20 -1 33 8 39 22 13 27 11 43 -18 10 -18 15 -22 16 -12
0 9 9 27 21 40 11 13 18 18 14 12 -4 -9 -1 -11 9 -7 9 3 16 16 16 29 0 13 7
25 15 29 12 4 10 17 -14 73 -16 37 -36 102 -46 143 -29 130 -44 194 -59 240
-17 57 -8 82 41 113 47 30 90 76 133 142 18 28 55 73 83 101 28 30 47 58 44
65 -3 9 -6 6 -6 -6 -1 -17 -3 -17 -11 -5 -7 11 -10 11 -10 2 0 -7 -5 -10 -10
-7 -6 4 -1 14 11 24 13 10 19 23 15 29 -9 15 -39 15 -53 1 -16 -16 -26 6 -13
30 14 28 13 31 -15 31 -16 0 -25 -6 -25 -15 0 -18 -9 -19 -30 -4 -11 8 -12 12
-2 16 17 7 15 33 -2 33 -8 0 -21 -7 -30 -15 -19 -20 -45 -9 -39 16 7 24 -11
25 -34 0 -10 -10 -28 -20 -40 -23 -19 -5 -21 -3 -13 18 10 26 11 26 -50 15z"/>
<path d="M3063 2242 c-20 -2 -30 -8 -27 -15 3 -9 86 -12 323 -12 176 0 322 3
326 7 15 15 -75 21 -325 22 -146 1 -279 0 -297 -2z"/>
<path d="M3149 2140 l-45 -5 9 -35 10 -35 11 28 c5 15 17 27 25 27 18 0 48 17
41 22 -3 2 -26 1 -51 -2z"/>
<path d="M2628 2028 c-3 -7 -13 -13 -24 -13 -30 0 -32 -75 -3 -121 27 -44 114
-114 141 -114 22 0 76 36 114 75 12 12 27 45 33 74 14 65 14 74 -1 65 -8 -5
-9 -2 -5 9 4 11 -1 21 -14 28 -28 14 -69 3 -69 -19 0 -13 -2 -14 -9 -4 -6 10
-10 10 -21 -3 -16 -19 -46 -20 -54 0 -3 8 -15 15 -26 15 -11 0 -20 5 -20 10 0
14 -38 12 -42 -2z m82 -38 c0 -5 -4 -10 -10 -10 -5 0 -10 5 -10 10 0 6 5 10
10 10 6 0 10 -4 10 -10z m24 -89 c-6 -6 -24 19 -24 34 1 6 7 1 15 -9 8 -11 12
-22 9 -25z m51 29 c3 -5 1 -10 -4 -10 -6 0 -11 5 -11 10 0 6 2 10 4 10 3 0 8
-4 11 -10z"/>
<path d="M5916 2011 c-4 -5 -2 -12 3 -15 5 -4 12 -2 15 3 4 5 2 12 -3 15 -5 4
-12 2 -15 -3z"/>
<path d="M5928 1953 c7 -3 16 -2 19 1 4 3 -2 6 -13 5 -11 0 -14 -3 -6 -6z"/>
<path d="M2310 1890 c0 -25 4 -30 25 -30 21 0 25 5 25 30 0 25 -4 30 -25 30
-21 0 -25 -5 -25 -30z"/>
<path d="M5853 1905 c-19 -33 -139 -147 -180 -172 -44 -26 -52 -33 -30 -29 41
9 125 52 150 78 10 10 21 18 26 18 4 0 13 11 21 24 8 16 18 22 29 18 14 -5 14
-3 -1 12 -14 14 -16 22 -7 38 13 24 5 37 -8 13z"/>
<path d="M5870 1884 c0 -8 5 -12 10 -9 6 3 10 10 10 16 0 5 -4 9 -10 9 -5 0
-10 -7 -10 -16z"/>
<path d="M5982 1736 c7 -8 15 -12 17 -11 5 6 -10 25 -20 25 -5 0 -4 -6 3 -14z"/>
<path d="M5865 1720 c-22 -5 -58 -13 -80 -19 -22 -6 -71 -11 -110 -11 -102 -2
-49 -20 75 -27 82 -4 100 -2 133 15 22 12 32 22 25 25 -8 3 -6 6 5 6 9 1 17 6
17 11 0 11 -7 11 -65 0z"/>
<path d="M2400 1700 c0 -11 7 -20 15 -20 8 0 15 9 15 20 0 11 -7 20 -15 20 -8
0 -15 -9 -15 -20z"/>
<path d="M5322 1693 c7 -16 13 -30 14 -31 4 -6 78 22 92 35 21 20 14 23 -53
23 l-65 0 12 -27z"/>
<path d="M6117 1703 c-4 -3 -7 -26 -7 -50 0 -35 -3 -43 -19 -43 -14 0 -22 -14
-35 -57 -10 -36 -12 -59 -6 -61 29 -10 -22 -112 -56 -112 -11 0 -42 -20 -67
-45 -26 -25 -43 -45 -37 -45 5 0 12 1 14 3 1 1 21 -15 44 -35 41 -37 120 -68
172 -68 44 0 115 26 153 54 144 110 140 326 -8 423 -48 31 -133 52 -148 36z"/>
<path d="M2995 1650 c-8 -16 -24 -34 -35 -40 -11 -6 -18 -15 -16 -19 3 -4 -6
-19 -20 -32 l-25 -24 -18 23 c-13 18 -23 22 -44 17 -16 -5 -27 -14 -27 -25 0
-21 33 -53 46 -43 5 5 1 -1 -9 -13 -9 -11 -17 -27 -17 -35 0 -8 -21 -32 -47
-55 l-46 -41 21 -21 c17 -17 22 -35 23 -80 1 -43 4 -51 10 -34 7 18 12 21 27
13 15 -8 18 -5 20 16 3 38 10 43 58 43 39 0 44 -3 45 -22 0 -22 1 -22 9 -3 8
19 9 19 9 -2 1 -13 -2 -23 -6 -23 -15 0 -14 -80 1 -108 8 -15 38 -47 67 -72
29 -25 67 -60 85 -79 31 -32 54 -35 54 -6 0 7 -5 15 -12 17 -9 3 -7 28 6 100
18 93 18 97 0 122 -11 14 -25 26 -31 26 -7 0 -20 17 -30 38 -9 20 -19 40 -21
45 -2 4 4 7 13 7 9 0 13 5 10 10 -3 6 -27 10 -53 11 -26 0 -41 3 -34 6 13 5
16 60 6 88 -5 13 -8 14 -15 3 -6 -9 -9 -6 -9 12 0 24 -19 66 -20 45 0 -5 -4
-4 -9 4 -7 10 -4 19 7 29 9 7 11 11 5 7 -18 -9 -16 20 2 35 8 7 15 18 15 26 0
7 9 18 20 24 11 6 20 17 20 25 0 25 -19 17 -35 -15z m-45 -185 c7 -9 8 -15 2
-15 -5 0 -12 7 -16 15 -3 8 -4 15 -2 15 2 0 9 -7 16 -15z m-24 -56 c19 -22 19
-22 -3 -10 -24 12 -39 31 -25 31 5 0 17 -10 28 -21z m-66 -59 c14 -11 35 -20
47 -20 12 0 25 -5 29 -11 5 -9 -6 -10 -41 -5 -75 12 -116 36 -82 49 19 8 20 8
47 -13z"/>
<path d="M5605 1645 c4 -11 12 -35 17 -54 10 -34 17 -48 67 -126 25 -40 99
-115 114 -115 4 0 7 5 7 10 0 6 -5 10 -12 10 -6 0 -9 2 -7 5 11 10 47 -8 42
-21 -3 -8 -1 -14 5 -14 5 0 10 16 9 35 -1 28 -4 32 -15 23 -7 -6 -12 -7 -10
-1 2 5 -36 48 -84 95 -49 46 -88 89 -88 96 0 6 -6 17 -13 24 -7 7 -19 22 -26
33 l-13 20 7 -20z"/>
<path d="M5652 1634 c66 -71 207 -127 250 -101 10 7 18 15 18 18 0 8 -125 49
-146 49 -11 0 -101 37 -139 58 -5 3 2 -8 17 -24z"/>
<path d="M5572 1596 c-6 -33 -12 -87 -12 -120 0 -74 33 -199 60 -229 11 -11
20 -25 20 -29 0 -5 5 -6 11 -2 8 4 7 9 -2 15 -8 4 2 6 24 5 35 -3 36 -2 22 14
-17 19 -20 34 -5 25 5 -3 -3 18 -19 47 -40 74 -69 170 -78 258 l-8 75 -13 -59z"/>
<path d="M5447 1623 c4 -9 0 -11 -11 -7 -10 4 -33 -5 -56 -20 -32 -21 -39 -30
-31 -44 5 -9 5 -26 1 -37 -7 -18 -80 -88 -149 -143 l-24 -19 21 -21 c12 -12
22 -27 22 -33 0 -5 5 -7 10 -4 6 3 10 16 10 27 0 20 1 20 19 4 18 -16 19 -16
25 10 11 42 59 144 68 144 4 0 8 7 8 15 0 8 25 40 55 72 58 62 63 70 41 70 -8
0 -12 -6 -9 -14z"/>
<path d="M5504 1582 c-51 -63 -72 -104 -93 -182 -33 -117 -28 -170 17 -176 21
-4 27 -13 15 -25 -16 -16 -46 -7 -59 20 -7 12 -27 32 -45 43 l-34 21 -30 -39
c-16 -21 -60 -71 -97 -110 -38 -39 -68 -72 -68 -75 0 -2 15 -5 32 -5 25 -1 40
7 65 35 18 20 33 42 33 49 0 7 10 17 23 22 12 6 29 15 38 21 13 10 25 6 60
-18 37 -25 145 -73 165 -73 4 0 4 6 1 13 -8 21 11 57 31 57 30 0 48 -27 34
-51 -11 -18 -9 -19 47 -19 75 0 161 19 161 36 0 7 10 18 21 25 12 6 19 7 16 2
-3 -5 4 -9 16 -9 17 1 23 -6 25 -27 2 -15 12 -32 23 -37 17 -10 19 -7 19 19 0
22 -7 35 -25 47 -24 16 -37 43 -13 28 7 -4 8 -3 4 5 -4 6 -11 9 -16 6 -5 -3
-13 3 -19 12 -6 10 -11 14 -11 8 0 -5 -4 -4 -8 3 -16 25 -182 7 -182 -20 0 -4
-14 -8 -31 -8 -39 0 -119 20 -119 30 0 5 -9 6 -20 3 -14 -4 -20 0 -20 11 0 10
4 15 9 11 5 -3 12 -1 16 5 3 5 3 10 -2 10 -4 0 -7 39 -5 87 2 79 22 171 53
252 15 37 5 35 -27 -7z"/>
<path d="M2477 1584 c6 -15 23 -19 23 -5 0 5 -7 11 -14 14 -10 4 -13 1 -9 -9z"/>
<path d="M6026 1565 c4 -8 8 -15 10 -15 2 0 4 7 4 15 0 8 -4 15 -10 15 -5 0
-7 -7 -4 -15z"/>
<path d="M3110 1550 c0 -5 5 -10 11 -10 5 0 7 5 4 10 -3 6 -8 10 -11 10 -2 0
-4 -4 -4 -10z"/>
<path d="M5980 1540 c0 -5 5 -10 11 -10 5 0 7 5 4 10 -3 6 -8 10 -11 10 -2 0
-4 -4 -4 -10z"/>
<path d="M2980 1535 c1 -6 7 -21 16 -35 l15 -25 -7 25 c-7 26 -24 52 -24 35z"/>
<path d="M2668 1513 c7 -3 16 -2 19 1 4 3 -2 6 -13 5 -11 0 -14 -3 -6 -6z"/>
<path d="M4190 1428 c0 -9 5 -20 10 -23 13 -8 13 5 0 25 -8 13 -10 13 -10 -2z"/>
<path d="M3188 1395 c12 -9 34 -28 47 -41 14 -14 30 -22 35 -19 15 10 12 25
-6 25 -9 0 -18 9 -21 20 -3 11 -10 20 -17 20 -6 0 -22 3 -36 6 l-25 6 23 -17z"/>
<path d="M6490 1354 c-10 -34 -10 -51 -1 -70 6 -14 11 -40 11 -59 0 -19 5 -35
11 -35 6 0 9 -6 7 -12 -3 -7 -11 -13 -18 -13 -8 0 -18 -15 -22 -34 -5 -18 -16
-44 -24 -56 -8 -12 -11 -25 -7 -29 4 -4 1 -12 -7 -17 -11 -8 -12 -12 -3 -15 7
-3 9 -12 6 -20 -3 -7 -9 -11 -14 -8 -5 3 -7 9 -4 14 3 4 -1 13 -8 18 -10 8
-16 5 -27 -11 -12 -20 -12 -21 2 -9 13 11 16 10 14 -5 0 -12 6 -18 19 -19 27
-1 55 -14 55 -25 0 -4 -7 -6 -15 -3 -17 7 -21 -16 -6 -32 5 -5 14 -25 19 -44
6 -25 14 -34 25 -32 11 2 17 -4 17 -18 0 -11 -4 -20 -10 -20 -13 0 -13 -57 0
-65 6 -4 5 -15 -2 -30 -6 -13 -15 -22 -20 -19 -5 3 -7 2 -6 -3 4 -16 -52 -112
-73 -123 -23 -13 -22 -45 1 -45 8 0 17 11 19 25 3 24 16 40 34 40 5 0 5 -4 2
-10 -3 -5 -3 -10 2 -10 12 0 48 59 62 101 8 26 9 44 1 63 -5 15 -10 35 -10 44
0 15 2 15 11 2 7 -11 8 -4 3 25 -4 22 -11 45 -16 52 -5 6 -9 20 -8 30 4 31 1
39 -26 78 -19 28 -24 46 -20 67 3 18 1 28 -6 28 -6 0 -8 3 -5 6 4 4 14 1 24
-7 15 -12 16 -12 10 4 -4 11 -2 17 8 17 17 0 21 45 5 55 -5 3 -10 14 -10 23 0
13 2 14 9 4 12 -20 34 12 26 38 -4 11 -2 20 4 20 6 0 11 5 11 11 0 5 -4 7 -10
4 -5 -3 -10 1 -10 10 0 9 5 13 10 10 14 -8 13 5 -4 52 -8 22 -12 51 -9 65 9
46 -14 39 -27 -8z m30 -74 c0 -5 -4 -10 -10 -10 -5 0 -10 5 -10 10 0 6 5 10
10 10 6 0 10 -4 10 -10z m-23 -192 c-3 -8 -6 -5 -6 6 -1 11 2 17 5 13 3 -3 4
-12 1 -19z m1 -189 c-3 -8 -7 -3 -11 10 -4 17 -3 21 5 13 5 -5 8 -16 6 -23z
m-1 -51 c-3 -8 -6 -5 -6 6 -1 11 2 17 5 13 3 -3 4 -12 1 -19z"/>
<path d="M4210 1381 c0 -19 48 -110 54 -104 4 4 4 0 0 -10 -4 -12 -1 -17 10
-17 9 0 16 -7 16 -15 0 -8 3 -15 8 -15 4 0 13 -13 20 -30 8 -16 18 -30 22 -30
5 0 27 -18 49 -40 22 -22 46 -40 53 -40 25 0 58 -45 58 -77 0 -18 7 -38 15
-47 16 -16 21 -41 6 -32 -5 3 -9 0 -8 -7 2 -62 -27 -95 -131 -144 -66 -31 -66
-31 -32 -33 19 -1 38 -2 43 -1 4 0 7 -2 7 -7 0 -4 15 -16 34 -26 33 -17 34
-17 77 4 62 31 171 147 163 172 -3 11 -7 56 -8 101 l-3 80 -95 21 c-98 22
-168 58 -220 113 -28 30 -108 157 -108 172 0 5 -7 11 -15 15 -8 3 -15 1 -15
-3z"/>
<path d="M3280 1320 c0 -11 7 -20 15 -20 17 0 18 2 9 24 -9 23 -24 20 -24 -4z"/>
<path d="M5120 1320 c-8 -5 -10 -10 -5 -10 6 0 17 5 25 10 8 5 11 10 5 10 -5
0 -17 -5 -25 -10z"/>
<path d="M4105 1298 c-2 -7 -5 -22 -7 -33 -2 -12 -12 -21 -26 -23 -14 -2 -24
-13 -28 -29 -4 -16 -19 -30 -40 -39 -18 -8 -41 -28 -49 -44 -13 -24 -20 -29
-39 -24 -19 4 -26 1 -31 -15 -8 -26 1 -42 20 -34 11 4 15 -2 15 -22 0 -16 -4
-24 -11 -20 -5 4 -3 -10 5 -30 9 -21 16 -52 16 -70 0 -18 9 -42 21 -56 11 -13
24 -28 27 -34 9 -13 62 -50 85 -58 9 -3 17 -12 17 -19 0 -7 9 -19 21 -26 34
-21 94 -6 141 37 39 35 118 141 118 159 0 4 16 27 35 49 19 23 35 47 35 55 0
15 -52 58 -70 58 -5 0 -10 5 -10 10 0 6 -6 10 -14 10 -15 0 -135 114 -180 173
-31 39 -44 45 -51 25z m-3 -175 c-24 -35 -36 -121 -21 -159 6 -16 10 -30 10
-31 -3 -11 46 -53 61 -53 21 0 86 39 107 64 19 23 -2 20 -24 -4 -33 -37 -97
-21 -129 33 -22 36 -22 51 1 85 20 33 25 24 14 -31 -4 -25 -5 -51 0 -58 10
-17 73 -17 93 0 13 11 12 15 -11 35 -15 13 -23 28 -19 35 5 8 13 5 27 -11 12
-13 17 -16 13 -8 -7 13 -5 13 8 2 13 -10 17 -10 22 3 7 20 26 19 26 -1 0 -12
5 -11 20 7 l20 24 -2 -61 c-1 -52 -3 -61 -18 -57 -10 3 -20 -5 -28 -21 -6 -14
-15 -26 -19 -26 -5 0 -20 -11 -34 -24 -32 -30 -112 -46 -103 -21 4 10 0 15
-10 15 -37 0 -53 34 -59 128 -7 102 1 138 35 152 37 14 40 12 20 -17z"/>
<path d="M3438 1263 c13 -9 22 -26 22 -42 0 -17 11 -38 30 -56 28 -26 32 -27
56 -15 30 17 57 4 62 -27 2 -16 8 -20 25 -15 12 3 19 2 15 -2 -3 -4 1 -16 9
-26 13 -15 21 -16 46 -7 24 8 32 7 35 -2 3 -8 13 -21 23 -29 11 -9 19 -23 18
-32 0 -10 -2 -11 -6 -2 -3 8 -11 4 -25 -13 -24 -30 -32 -31 -59 -4 -13 13 -18
28 -15 42 3 12 3 16 0 10 -3 -7 -11 -13 -17 -13 -15 0 -40 38 -32 50 4 7 -7 7
-33 1 -2 -1 7 -19 19 -41 12 -21 27 -36 32 -33 6 3 16 -2 23 -12 7 -9 27 -32
43 -51 22 -24 31 -43 31 -68 0 -19 7 -42 17 -51 17 -18 16 -20 -31 -46 -17
-10 -18 -8 -14 20 5 35 -10 37 -27 4 -7 -13 -15 -17 -25 -13 -8 4 -27 13 -42
20 -15 7 -43 28 -63 47 -31 29 -41 33 -68 27 -46 -10 -77 -22 -77 -31 0 -5
-33 -7 -72 -5 l-73 2 78 -73 c52 -50 77 -81 77 -96 0 -13 11 -32 25 -43 30
-24 33 -58 5 -65 -17 -5 -20 -14 -20 -69 0 -64 4 -70 41 -66 3 1 3 -13 1 -30
-3 -19 1 -34 9 -40 10 -6 7 -7 -9 -3 -20 6 -23 4 -20 -17 2 -15 10 -23 23 -23
14 0 21 -8 23 -28 4 -30 -12 -36 -26 -10 -14 24 -42 25 -42 2 0 -10 6 -19 14
-19 8 0 18 -5 22 -12 5 -8 0 -9 -14 -6 -12 4 -22 2 -22 -3 0 -5 7 -9 15 -9 13
0 41 -39 36 -50 -8 -17 -35 -39 -42 -34 -5 3 -9 -4 -9 -15 0 -17 5 -19 42 -15
24 3 44 1 48 -6 5 -7 11 -5 21 6 12 16 12 17 -3 12 -10 -4 -19 -1 -22 8 -3 9
-1 12 4 9 6 -3 15 -3 22 1 8 5 6 10 -8 15 -15 6 -12 8 13 8 17 1 34 7 36 14 3
7 6 5 6 -5 1 -10 -6 -18 -14 -18 -20 0 -19 -26 1 -34 21 -8 24 -8 24 5 0 5 -4
7 -10 4 -5 -3 -10 -2 -10 4 0 5 4 11 9 13 20 7 16 42 -7 54 -15 7 -20 14 -13
19 15 8 4 26 -12 20 -7 -3 -18 7 -24 22 -17 37 7 77 40 67 37 -11 47 -25 47
-63 0 -24 3 -31 9 -22 5 7 6 22 4 32 -4 13 0 19 11 20 32 3 36 4 58 23 21 19
21 20 3 26 -14 5 -22 19 -25 45 -3 21 -11 40 -19 43 -9 3 -11 0 -6 -8 5 -9 4
-11 -3 -6 -15 9 -15 26 -1 26 9 0 73 45 126 90 7 5 17 10 23 10 5 0 10 5 10
10 0 6 13 10 29 10 32 0 81 -37 81 -62 0 -16 30 -48 45 -48 5 0 17 -7 26 -16
10 -9 31 -17 46 -17 15 0 22 -2 15 -4 -6 -3 -9 -9 -6 -14 4 -6 11 -6 19 1 10
8 12 3 9 -22 -2 -18 0 -28 4 -22 4 6 15 10 25 8 13 -2 15 1 8 10 -7 9 -7 17 2
26 10 12 9 12 -5 1 -10 -7 -15 -18 -11 -24 4 -6 1 -7 -6 -2 -10 5 -7 14 11 32
25 25 42 28 93 17 17 -3 47 -5 69 -5 21 1 44 -4 52 -10 10 -8 14 -8 14 0 0 6
7 11 15 11 9 0 15 10 15 26 0 14 4 23 10 19 6 -3 10 5 10 19 0 13 6 27 13 30
6 3 3 5 -8 3 -18 -2 -78 19 -125 43 -9 4 -14 18 -12 32 l3 25 -102 -19 c-56
-10 -110 -25 -119 -33 -33 -30 -55 -18 -103 55 -62 96 -95 165 -107 228 -9 49
-8 57 16 98 l26 44 -21 45 c-12 25 -21 47 -21 51 0 19 -47 43 -73 38 -22 -5
-32 -1 -44 16 -11 15 -22 20 -38 16 -15 -4 -28 1 -41 15 -13 15 -26 19 -46 15
-20 -4 -32 0 -45 17 -11 13 -27 21 -40 19 -14 -2 -26 4 -33 17 -6 12 -18 21
-28 20 -14 0 -13 -3 6 -16z m372 -245 c0 -9 -4 -19 -9 -22 -4 -3 -6 6 -3 19 2
15 0 25 -7 25 -7 0 -9 5 -5 11 8 14 24 -8 24 -33z m-100 -303 c7 -9 8 -15 2
-15 -5 0 -12 7 -16 15 -3 8 -4 15 -2 15 2 0 9 -7 16 -15z m-113 -72 c-2 -5 -7
-17 -11 -28 -6 -16 -9 -17 -16 -5 -8 12 -10 12 -10 -4 0 -14 -3 -16 -13 -7 -8
6 -17 7 -22 3 -4 -4 -6 -1 -3 7 2 7 19 19 38 26 19 7 36 13 38 14 2 0 1 -2 -1
-6z m211 -18 c-3 -3 -9 2 -12 12 -6 14 -5 15 5 6 7 -7 10 -15 7 -18z m-105
-107 c-8 -14 -18 -8 -30 19 -20 41 -15 47 11 16 13 -15 22 -31 19 -35z m-96
-6 c3 -13 3 -26 -1 -29 -3 -4 1 -14 9 -23 14 -16 14 -18 0 -24 -12 -4 -19 0
-22 14 -3 11 -9 17 -15 14 -5 -3 -15 -2 -21 3 -7 4 -4 0 6 -9 11 -10 14 -18 9
-18 -6 0 -14 5 -17 10 -5 8 -12 7 -23 -2 -15 -11 -15 -11 -5 3 7 9 11 18 8 21
-3 2 -7 21 -9 41 -4 27 -2 35 9 31 7 -3 16 -1 19 5 10 16 46 -9 53 -37z m554
28 c23 -13 26 -58 4 -66 -20 -8 -92 5 -79 14 5 4 10 14 12 22 5 19 22 40 34
40 5 0 18 -5 29 -10z m-491 -134 c0 -8 -4 -18 -10 -21 -5 -3 -10 3 -10 14 0
12 5 21 10 21 6 0 10 -6 10 -14z m-117 -208 c8 -5 8 -8 1 -8 -23 0 -53 68 -36
84 4 4 10 -10 15 -30 4 -21 13 -42 20 -46z m-47 27 c6 -23 -2 -63 -10 -54 -2
2 -6 21 -9 42 -6 41 9 51 19 12z"/>
<path d="M2798 1180 c-3 -19 -2 -36 3 -38 4 -2 5 -10 3 -17 -6 -14 55 -109 64
-100 3 2 -1 11 -8 20 -7 9 -11 18 -8 20 2 3 15 -9 27 -26 17 -23 20 -34 12
-42 -17 -17 -13 -27 7 -20 15 6 15 5 3 -10 -7 -9 -17 -14 -22 -11 -5 3 -9 -2
-9 -10 0 -9 -4 -16 -10 -16 -5 0 -10 6 -10 12 0 7 -12 -5 -26 -25 -14 -21 -23
-41 -21 -44 3 -3 13 9 22 26 19 38 29 40 20 4 -6 -25 -3 -23 24 13 17 23 43
49 57 59 l26 17 -35 36 c-20 21 -47 57 -61 82 l-26 45 6 -35 c4 -29 3 -32 -6
-17 -7 11 -9 34 -5 59 5 27 4 38 -3 34 -6 -3 -12 0 -15 6 -2 7 -6 -3 -9 -22z"/>
<path d="M6380 1170 c-23 -31 -84 -68 -134 -81 -25 -6 -46 -15 -46 -19 0 -3
-25 -5 -56 -3 -42 2 -55 0 -52 -9 11 -33 211 -8 225 27 3 8 11 15 17 15 16 0
60 50 64 73 4 22 0 22 -18 -3z"/>
<path d="M4905 1098 c-58 -23 -78 -38 -49 -38 11 0 26 -9 33 -19 11 -15 17
-16 25 -7 14 15 48 78 44 81 -2 2 -25 -6 -53 -17z m15 -33 c0 -8 -4 -15 -10
-15 -5 0 -7 7 -4 15 4 8 8 15 10 15 2 0 4 -7 4 -15z"/>
<path d="M5254 1071 c-56 -34 -73 -69 -76 -156 l-3 -78 -40 -14 c-21 -7 -49
-22 -60 -33 -12 -11 -25 -17 -30 -13 -4 5 -5 2 -1 -5 4 -7 3 -19 -3 -26 -6 -7
-13 -37 -17 -68 -7 -56 -6 -56 37 -100 44 -43 99 -68 153 -68 14 0 26 5 26 10
0 16 60 12 77 -6 9 -8 19 -12 22 -7 3 5 28 14 55 21 75 19 139 55 162 90 41
60 37 199 -8 280 -10 18 -18 39 -18 46 0 23 -90 116 -128 131 -48 21 -111 19
-148 -4z m69 -17 c5 -5 -12 -30 -39 -57 -6 -6 -10 -18 -9 -27 1 -8 0 -9 -2 -2
-3 6 -10 12 -17 12 -11 0 -13 19 -7 62 2 12 63 23 74 12z m-200 -269 c-14 -10
-20 -22 -17 -37 4 -20 3 -21 -4 -4 -10 24 -25 6 -17 -21 4 -11 1 -9 -6 5 -11
19 -9 25 17 47 16 14 33 25 39 25 5 0 0 -7 -12 -15z"/>
<path d="M3640 1066 c0 -9 5 -16 10 -16 6 0 10 4 10 9 0 6 -4 13 -10 16 -5 3
-10 -1 -10 -9z"/>
<path d="M4950 1071 c0 -5 5 -13 10 -16 6 -3 10 -2 10 4 0 5 -4 13 -10 16 -5
3 -10 2 -10 -4z"/>
<path d="M5053 1003 c-33 -39 -39 -52 -31 -67 9 -17 13 -15 49 20 27 27 36 41
29 50 -6 6 -8 19 -4 28 10 26 1 19 -43 -31z"/>
<path d="M3280 1032 c0 -16 25 -40 48 -45 28 -7 28 4 -1 31 -23 22 -47 29 -47
14z"/>
<path d="M5891 1034 c-1 -6 -33 -16 -72 -23 -39 -6 -81 -18 -94 -27 -13 -9
-29 -13 -35 -9 -5 3 -10 -2 -10 -12 0 -10 -7 -27 -15 -37 -17 -22 -20 -92 -5
-101 6 -3 10 -1 10 4 0 22 18 10 24 -15 8 -32 2 -41 -18 -25 -26 22 10 -74 41
-109 48 -55 103 -73 154 -52 33 13 59 75 59 141 0 46 2 50 35 65 20 10 41 30
50 50 15 31 15 37 1 63 -19 37 -32 47 -78 62 -20 7 -39 17 -42 24 -3 8 -5 8
-5 1z"/>
<path d="M4923 858 c-16 -18 -33 -41 -36 -51 -4 -9 -17 -22 -29 -28 -20 -10
-194 -199 -288 -312 -40 -49 -9 -26 57 41 26 27 46 41 54 36 8 -4 10 -3 5 5
-5 7 52 71 149 168 115 114 153 158 143 164 -19 13 -21 12 -55 -23z"/>
<path d="M3218 863 c6 -2 12 -9 12 -14 0 -6 -5 -7 -12 -3 -7 5 -8 3 -3 -5 5
-9 11 -9 17 -3 12 12 2 32 -15 31 -9 0 -9 -2 1 -6z"/>
<path d="M2821 832 c-1 -7 -5 -10 -11 -7 -17 10 -11 -17 6 -29 11 -9 13 -19 8
-41 l-8 -30 -7 30 c-5 21 -7 10 -8 -38 -1 -70 4 -83 83 -197 6 -8 7 -12 3 -9
-4 4 -22 -7 -39 -23 -29 -27 -30 -30 -17 -55 11 -20 15 -22 17 -10 2 10 10 17
18 17 8 0 14 7 14 15 0 8 14 28 30 43 36 35 37 43 8 68 -29 26 -79 105 -72
115 3 5 0 9 -6 9 -7 0 -9 17 -6 49 3 26 1 61 -4 77 -4 16 -9 23 -9 16z m-4
-134 c-3 -8 -6 -5 -6 6 -1 11 2 17 5 13 3 -3 4 -12 1 -19z m65 -140 c-7 -7
-12 -8 -12 -2 0 14 12 26 19 19 2 -3 -1 -11 -7 -17z"/>
<path d="M4624 638 l-19 -23 23 19 c21 18 27 26 19 26 -2 0 -12 -10 -23 -22z"/>
<path d="M4510 565 c-17 -10 -20 -14 -9 -15 9 0 22 7 29 15 15 18 12 18 -20 0z"/>
<path d="M4456 538 c3 -5 10 -6 15 -3 13 9 11 12 -6 12 -8 0 -12 -4 -9 -9z"/>
<path d="M6440 541 c0 -6 5 -13 10 -16 6 -3 10 1 10 9 0 9 -4 16 -10 16 -5 0
-10 -4 -10 -9z"/>
<path d="M4485 531 c-3 -5 -1 -12 5 -16 6 -4 7 -11 4 -17 -4 -7 -2 -8 5 -4 8
6 9 12 2 20 -6 7 -8 16 -4 19 3 4 4 7 0 7 -3 0 -8 -4 -12 -9z"/>
<path d="M6490 470 c6 -11 13 -20 16 -20 2 0 0 9 -6 20 -6 11 -13 20 -16 20
-2 0 0 -9 6 -20z"/>
<path d="M4820 450 c0 -5 -11 -10 -24 -10 -30 0 -122 -73 -142 -113 -9 -17
-18 -55 -21 -86 -4 -48 -2 -59 17 -80 21 -21 28 -22 85 -16 62 6 63 6 81 -23
19 -33 52 -52 89 -52 30 0 78 59 73 92 -2 15 2 22 11 20 11 -2 13 11 9 67 -3
39 -11 78 -18 86 -7 8 -14 33 -15 56 -4 42 -15 68 -15 33 0 -16 -3 -15 -24 9
-18 21 -32 27 -65 27 -22 0 -41 -4 -41 -10z m20 -266 c0 -8 5 -12 10 -9 6 3
10 -2 10 -11 0 -16 1 -16 14 1 13 18 14 18 9 -8 -5 -27 -11 -27 -45 2 -19 17
-24 41 -8 41 6 0 10 -7 10 -16z m90 -18 c0 -3 -4 -8 -10 -11 -5 -3 -10 -1 -10
4 0 6 5 11 10 11 6 0 10 -2 10 -4z m10 -35 c0 -5 -7 -12 -16 -15 -14 -5 -15
-4 -4 9 14 17 20 19 20 6z"/>
<path d="M6466 440 c9 -37 25 -49 22 -18 -1 15 -5 25 -9 22 -4 -2 -10 2 -13 8
-3 7 -3 2 0 -12z"/>
<path d="M4145 442 c-5 -4 -11 -13 -13 -20 -2 -10 2 -10 18 -2 11 6 18 15 15
21 -7 11 -7 11 -20 1z"/>
<path d="M4495 427 c10 -15 20 -25 23 -22 3 3 -5 16 -17 28 l-23 22 17 -28z"/>
<path d="M2803 412 c3 -15 2 -34 -2 -41 -5 -7 -6 -22 -4 -32 5 -18 6 -18 24 3
11 12 17 30 14 40 -3 10 -8 27 -11 38 -9 31 -27 24 -21 -8z"/>
<path d="M6501 418 c0 -9 -4 -25 -7 -35 -5 -14 -4 -15 5 -7 7 7 11 22 8 35 -2
13 -5 16 -6 7z"/>
<path d="M6520 375 c0 -5 5 -17 10 -25 5 -8 10 -10 10 -5 0 6 -5 17 -10 25 -5
8 -10 11 -10 5z"/>
<path d="M3432 340 c0 -14 2 -19 5 -12 2 6 2 18 0 25 -3 6 -5 1 -5 -13z"/>
<path d="M3765 327 c3 -35 -27 -88 -42 -74 -4 5 -1 12 7 17 13 8 13 10 -1 10
-13 0 -29 -18 -29 -34 0 -1 11 -3 25 -4 17 -1 28 4 32 16 4 9 12 20 19 24 14
9 13 70 -2 75 -7 2 -10 -9 -9 -30z"/>
<path d="M4101 347 c-8 -10 -7 -14 4 -14 8 0 15 6 15 14 0 7 -2 13 -4 13 -2 0
-9 -6 -15 -13z"/>
<path d="M3875 340 c3 -5 8 -10 11 -10 2 0 4 5 4 10 0 6 -5 10 -11 10 -5 0 -7
-4 -4 -10z"/>
<path d="M2782 315 c0 -16 2 -22 5 -12 2 9 2 23 0 30 -3 6 -5 -1 -5 -18z"/>
<path d="M2823 301 c4 -16 2 -21 -8 -17 -19 7 -26 -19 -15 -50 6 -14 8 -29 5
-34 -8 -12 28 -70 43 -70 7 0 10 -4 7 -10 -3 -6 1 -7 10 -4 12 5 14 2 8 -12
-6 -17 -5 -17 10 -5 26 21 32 6 9 -20 -18 -19 -19 -23 -7 -36 20 -20 36 -7 29
23 -4 14 -2 24 5 24 16 0 2 28 -18 35 -9 2 -21 15 -26 27 -6 13 -20 27 -32 33
-23 10 -30 29 -14 39 12 8 10 85 -2 93 -6 4 -8 -2 -4 -16z"/>
<path d="M3901 304 c0 -11 3 -14 6 -6 3 7 2 16 -1 19 -3 4 -6 -2 -5 -13z"/>
<path d="M6507 313 c-4 -3 -7 -18 -6 -32 1 -26 1 -25 10 3 9 31 7 41 -4 29z"/>
<path d="M3650 290 c0 -5 5 -10 10 -10 6 0 10 5 10 10 0 6 -4 10 -10 10 -5 0
-10 -4 -10 -10z"/>
<path d="M6531 284 c0 -11 3 -14 6 -6 3 7 2 16 -1 19 -3 4 -6 -2 -5 -13z"/>
<path d="M4094 244 c7 -68 27 -86 95 -82 42 2 57 7 59 19 2 11 -7 18 -29 23
-18 3 -38 15 -46 26 -8 11 -21 20 -29 20 -8 0 -14 3 -14 8 0 4 -9 13 -21 20
-20 13 -20 12 -15 -34z"/>
<path d="M5012 230 c0 -19 2 -27 5 -17 2 9 2 25 0 35 -3 9 -5 1 -5 -18z"/>
<path d="M6482 215 c-7 -15 -10 -30 -7 -35 3 -5 0 -10 -7 -12 -13 -5 -20 -78
-7 -78 5 0 9 7 9 16 0 9 5 13 13 9 6 -4 4 0 -5 8 -21 17 -24 29 -5 22 7 -3 17
11 25 36 15 48 2 74 -16 34z"/>
<path d="M3762 205 c0 -16 2 -22 5 -12 2 9 2 23 0 30 -3 6 -5 -1 -5 -18z"/>
<path d="M4310 219 c0 -5 5 -7 10 -4 6 3 10 8 10 11 0 2 -4 4 -10 4 -5 0 -10
-5 -10 -11z"/>
<path d="M3619 196 c-5 -22 -4 -34 3 -53 4 -13 4 -23 -1 -23 -4 0 -6 -11 -3
-25 2 -14 0 -25 -5 -25 -5 0 -9 -16 -10 -35 -1 -32 1 -35 29 -35 l29 0 -20 29
c-23 32 -26 41 -11 41 6 0 10 -7 10 -15 0 -8 5 -15 10 -15 15 0 12 26 -5 40
-21 18 -19 40 5 40 15 0 19 5 16 23 -3 12 -5 23 -7 25 -1 1 -2 8 -3 14 -1 13
-35 25 -37 14z"/>
<path d="M5011 174 c0 -11 3 -14 6 -6 3 7 2 16 -1 19 -3 4 -6 -2 -5 -13z"/>
<path d="M6507 173 c-4 -3 -7 -11 -7 -17 0 -6 5 -5 12 2 6 6 9 14 7 17 -3 3
-9 2 -12 -2z"/>
<path d="M3819 143 c-7 -7 -9 -16 -5 -20 3 -3 6 -1 6 5 0 6 15 12 33 14 32 3
32 3 5 9 -18 4 -32 1 -39 -8z"/>
<path d="M3689 143 c-1 -5 -1 -11 0 -15 0 -4 -8 -10 -19 -13 -11 -4 -20 -13
-20 -22 0 -13 3 -13 15 -3 19 15 42 -1 30 -20 -6 -9 -10 -9 -16 1 -7 11 -9 11
-9 -1 0 -8 4 -19 8 -25 10 -15 48 -16 50 -2 0 7 2 19 3 27 5 37 -2 60 -18 60
-9 0 -14 3 -10 6 3 3 19 0 35 -7 22 -9 28 -18 24 -35 -5 -26 16 -43 29 -23 5
8 8 19 8 24 0 6 -3 4 -6 -2 -7 -18 -23 -16 -23 2 0 8 6 15 13 16 6 0 2 5 -10
11 -13 6 -23 15 -23 20 0 10 -60 11 -61 1z"/>
<path d="M3895 120 c3 -5 8 -10 11 -10 2 0 4 5 4 10 0 6 -5 10 -11 10 -5 0 -7
-4 -4 -10z"/>
<path d="M6404 85 c-4 -8 -10 -12 -16 -9 -5 3 -4 -3 3 -14 15 -24 39 -12 39
19 0 23 -18 25 -26 4z"/>
<path d="M3896 75 c-3 -8 -1 -15 4 -15 6 0 10 7 10 15 0 8 -2 15 -4 15 -2 0
-6 -7 -10 -15z"/>
<path d="M2925 70 c-3 -5 -2 -10 4 -10 5 0 13 5 16 10 3 6 2 10 -4 10 -5 0
-13 -4 -16 -10z"/>
<path d="M3810 61 c0 -5 7 -12 16 -15 14 -5 15 -4 4 9 -14 17 -20 19 -20 6z"/>
<path d="M6440 61 c0 -5 5 -13 10 -16 6 -4 8 -15 5 -26 -5 -15 -1 -19 19 -19
34 0 33 9 -4 43 -16 16 -30 24 -30 18z"/>
<path d="M3772 36 c7 -8 15 -12 17 -11 5 6 -10 25 -20 25 -5 0 -4 -6 3 -14z"/>
<path d="M3740 33 c0 -4 5 -15 10 -23 8 -13 10 -13 10 2 0 9 -4 20 -10 23 -5
3 -10 3 -10 -2z"/>
<path d="M2845 22 c-10 -11 -4 -18 15 -19 11 -1 20 4 20 11 0 12 -25 18 -35 8z"/>
</g>
</svg>
